<svg width="90" height="90" viewBox="0 0 90 90" fill="none" xmlns="http://www.w3.org/2000/svg">
<circle cx="45" cy="45" r="45" fill="#DBFDDF"/>
<path fill-rule="evenodd" clip-rule="evenodd" d="M51.9716 49.7007C51.9716 54.4331 51.9716 59.1669 51.9716 63.8994C51.9716 65.9683 50.7211 67.2187 48.651 67.2187C41.2015 67.2187 33.7533 67.2187 26.3038 67.2187C24.2641 67.2187 23.001 65.9619 23.001 63.9299C22.9997 51.3832 22.9997 38.8352 23.001 26.2885C23.001 24.2578 24.2641 23.001 26.3051 23.001C33.7545 22.9997 41.2028 22.9997 48.6522 23.001C50.7211 23.001 51.9716 24.2514 51.9716 26.3203C51.9728 28.5124 51.9716 30.7033 51.9716 32.8955C51.2091 32.8955 50.4466 32.8955 49.6841 32.8955C49.6841 30.6893 49.6854 28.482 49.6828 26.2758C49.6828 25.5527 49.4261 25.2897 48.7208 25.2884C47.1336 25.2859 45.5464 25.2935 43.9591 25.2821C43.6922 25.2808 43.5245 25.3519 43.3797 25.587C43.0645 26.1005 42.7099 26.5897 42.3833 27.0955C42.166 27.4323 41.8763 27.581 41.4696 27.5797C38.8187 27.5708 36.1678 27.5695 33.5169 27.581C33.0874 27.5822 32.7951 27.417 32.5701 27.0663C32.2626 26.5859 31.9233 26.1246 31.6285 25.6353C31.4696 25.3736 31.2904 25.2757 30.9791 25.2795C29.4706 25.2973 27.9635 25.2871 26.455 25.2871C25.4803 25.2871 25.2897 25.4778 25.2897 26.4537C25.2897 37.3598 25.2897 48.2646 25.2897 59.1707C25.2897 59.2978 25.2846 59.4249 25.291 59.552C25.3164 60.0565 25.5934 60.3526 26.1017 60.3526C28.3396 60.3551 30.5775 60.3449 32.8154 60.3386C32.8942 60.3449 32.973 60.3576 33.0518 60.3576C38.3028 60.3576 43.5525 60.3576 48.8035 60.3564C49.4338 60.3564 49.6841 60.0984 49.6841 59.4554C49.6854 56.2034 49.6854 52.9514 49.6854 49.6994C50.4466 49.7007 51.2091 49.7007 51.9716 49.7007ZM37.4374 64.9313C38.1973 64.9313 38.9585 64.9402 39.7184 64.9275C40.2255 64.9198 40.5076 64.6326 40.533 64.1319C40.5432 63.9426 40.5381 63.752 40.5356 63.5613C40.5267 62.9145 40.2572 62.6464 39.6015 62.6438C38.1909 62.64 36.7816 62.64 35.371 62.6438C34.714 62.6451 34.4459 62.9132 34.437 63.5601C34.4344 63.7342 34.4319 63.9083 34.437 64.0824C34.4547 64.639 34.7331 64.9211 35.2986 64.9275C36.0115 64.9389 36.7244 64.9326 37.4374 64.9313ZM35.5794 26.0509C35.69 26.0509 35.8005 26.056 35.9111 26.0496C36.3953 26.0267 36.7142 25.7294 36.7206 25.2986C36.7282 24.8513 36.3965 24.5437 35.8869 24.5247C35.7929 24.5208 35.6976 24.5234 35.6023 24.5234C34.7966 24.5234 34.4293 24.7674 34.437 25.2986C34.4471 25.8158 34.8042 26.0522 35.5794 26.0509ZM39.3982 24.5247C38.6167 24.5247 38.2634 24.7547 38.2507 25.2693C38.2379 25.8005 38.6103 26.0522 39.4084 26.0522C40.1721 26.0522 40.5368 25.8018 40.533 25.2833C40.5292 24.7636 40.1709 24.5247 39.3982 24.5247Z" fill="#51BE5F"/>
<path fill-rule="evenodd" clip-rule="evenodd" d="M49.684 32.8954C50.4465 32.8954 51.209 32.8954 51.9715 32.8954C53.56 32.903 55.1485 32.9094 56.737 32.9157C56.4409 34.1484 56.4701 35.3569 56.9772 36.5401C57.7905 38.4374 59.8238 40.0348 62.6386 39.7425C62.6399 42.2778 62.6488 44.813 62.6412 47.3483C62.6373 48.7017 61.6512 49.6751 60.2889 49.6815C57.516 49.6929 54.7431 49.6942 51.9702 49.6993C51.2077 49.6993 50.4452 49.6993 49.6827 49.6993C49.1121 49.6993 48.5428 49.6993 47.9722 49.7006C47.1627 49.6955 46.3532 49.7006 45.545 49.6789C45.2387 49.6701 45.0112 49.7603 44.7799 49.9649C42.9716 51.5623 41.1531 53.1483 39.3345 54.7342C39.2494 54.8079 39.1871 54.9566 39.0092 54.8778C39.0092 53.2792 39.0016 51.6767 39.0168 50.0742C39.0194 49.7616 38.9317 49.6739 38.6203 49.6789C37.5414 49.6967 36.4612 49.6879 35.381 49.6853C33.8637 49.6828 32.9119 48.7348 32.9106 47.2212C32.9081 43.2677 32.9081 39.3155 32.9106 35.362C32.9119 33.8765 33.8675 32.9145 35.3467 32.9145C38.9342 32.9119 42.523 32.9144 46.1105 32.9132C47.3038 32.9106 48.4933 32.9005 49.684 32.8954ZM54.1623 46.629C54.3237 46.4905 54.2551 46.3037 54.2551 46.1385C54.2589 42.9119 54.2589 39.6853 54.2551 36.4588C54.2551 36.2935 54.3212 36.1067 54.1649 35.9669C49.1465 35.9669 44.1268 35.9669 39.1083 35.9657C38.9444 36.1029 39.013 36.2897 39.013 36.4549C39.0092 39.6828 39.0092 42.9106 39.013 46.1385C39.013 46.3037 38.9444 46.4905 39.1071 46.6277C44.1268 46.629 49.1439 46.629 54.1623 46.629Z" fill="#F8BE3E"/>
<path fill-rule="evenodd" clip-rule="evenodd" d="M62.6401 39.7439C59.824 40.0361 57.792 38.4387 56.9787 36.5414C56.4716 35.3596 56.4424 34.151 56.7385 32.9171C57.2722 31.4188 58.1859 30.2344 59.6652 29.5914C61.6934 28.7107 63.6326 28.9483 65.3164 30.3767C66.999 31.8039 67.595 33.6796 67.0168 35.8196C66.4449 37.9342 65.0051 39.2063 62.8638 39.6803C62.7888 39.6956 62.7151 39.7223 62.6401 39.7439ZM61.1202 34.0354C61.1202 34.9758 61.1113 35.8323 61.124 36.6888C61.1304 37.1489 61.4341 37.4615 61.8446 37.4831C62.2563 37.5034 62.6287 37.1997 62.6338 36.7625C62.6503 35.2071 62.6617 33.6516 62.63 32.0974C62.6173 31.462 61.8827 31.1494 61.4062 31.5713C60.8368 32.0745 60.3069 32.6261 59.7897 33.1839C59.5038 33.4928 59.5254 33.8651 59.8113 34.1739C60.0959 34.4802 60.4416 34.5158 60.8 34.2832C60.8915 34.2247 60.9703 34.1536 61.1202 34.0354Z" fill="#51BE5F"/>
<path fill-rule="evenodd" clip-rule="evenodd" d="M49.684 32.8955C48.4932 32.9005 47.3038 32.9094 46.113 32.9107C42.5255 32.9132 38.9367 32.9094 35.3492 32.912C33.87 32.9132 32.9131 33.8753 32.9131 35.3596C32.9106 39.313 32.9106 43.2665 32.9131 47.2188C32.9144 48.7323 33.8662 49.679 35.3835 49.6828C36.4637 49.6854 37.5427 49.6943 38.6228 49.6765C38.9342 49.6714 39.0232 49.7591 39.0193 50.0717C39.0041 51.6742 39.0117 53.2767 39.0117 54.8754C39.1896 54.9542 39.2532 54.8055 39.337 54.7318C41.1556 53.1458 42.9741 51.5598 44.7824 49.9624C45.0137 49.7578 45.2412 49.6689 45.5475 49.6765C46.357 49.6981 47.1665 49.693 47.9747 49.6981C47.9214 49.829 47.8743 49.9637 47.8133 50.0908C46.5781 52.6591 44.8231 54.8156 42.5649 56.5427C40.4299 58.1756 38.0599 59.3334 35.4128 59.9002C34.5512 60.0844 33.6794 60.181 32.8152 60.336C30.5774 60.3424 28.3395 60.3526 26.1016 60.35C25.5932 60.3488 25.3162 60.0539 25.2908 59.5494C25.2844 59.4223 25.2895 59.2952 25.2895 59.1682C25.2895 48.2621 25.2895 37.356 25.2895 26.4512C25.2895 25.4752 25.4801 25.2846 26.4549 25.2846C27.9633 25.2846 29.4705 25.2948 30.9789 25.277C31.2903 25.2732 31.4695 25.3697 31.6283 25.6328C31.9231 26.1208 32.2625 26.5821 32.57 27.0637C32.7949 27.4145 33.0872 27.5797 33.5167 27.5784C36.1676 27.567 38.8186 27.5682 41.4695 27.5771C41.8761 27.5784 42.1659 27.4297 42.3832 27.093C42.7098 26.5872 43.0643 26.0979 43.3795 25.5845C43.5244 25.3507 43.6921 25.2782 43.959 25.2795C45.5462 25.2909 47.1334 25.2833 48.7207 25.2859C49.426 25.2871 49.6827 25.5502 49.6827 26.2733C49.6852 28.4832 49.684 30.6893 49.684 32.8955Z" fill="#D0E6F7"/>
<path fill-rule="evenodd" clip-rule="evenodd" d="M32.8154 60.3398C33.6796 60.1848 34.5513 60.0882 35.413 59.904C38.0601 59.3372 40.4301 58.1794 42.5651 56.5465C44.8233 54.8194 46.577 52.6629 47.8135 50.0946C47.8745 49.9675 47.9215 49.8328 47.9749 49.7019C48.5455 49.7019 49.1148 49.7019 49.6854 49.7006C49.6854 52.9526 49.6854 56.2046 49.6841 59.4566C49.6841 60.0997 49.4338 60.3576 48.8035 60.3576C43.5525 60.3601 38.3028 60.3602 33.0518 60.3589C32.973 60.3589 32.8942 60.3462 32.8154 60.3398Z" fill="#9BC8FE"/>
<path fill-rule="evenodd" clip-rule="evenodd" d="M37.4374 64.9325C36.7245 64.9325 36.0116 64.9389 35.2986 64.9313C34.7344 64.9249 34.4548 64.6428 34.437 64.0862C34.4319 63.9121 34.4345 63.738 34.437 63.5639C34.4459 62.917 34.7141 62.6502 35.3711 62.6476C36.7817 62.6438 38.191 62.6438 39.6016 62.6476C40.2573 62.6489 40.5267 62.9183 40.5356 63.5652C40.5382 63.7558 40.5432 63.9464 40.5331 64.1357C40.5077 64.6364 40.2268 64.9224 39.7185 64.9313C38.9586 64.9414 38.1986 64.9313 37.4374 64.9325Z" fill="#FCCB01"/>
<path fill-rule="evenodd" clip-rule="evenodd" d="M35.5793 26.0509C34.8041 26.0509 34.4458 25.8158 34.4381 25.2986C34.4292 24.7674 34.7978 24.5234 35.6035 24.5234C35.6988 24.5234 35.7928 24.5209 35.8881 24.5247C36.399 24.5437 36.7294 24.8513 36.7218 25.2986C36.7154 25.7294 36.3965 26.0255 35.9123 26.0497C35.8017 26.056 35.6899 26.0509 35.5793 26.0509Z" fill="#E9EDF0"/>
<path fill-rule="evenodd" clip-rule="evenodd" d="M39.3984 24.5247C40.1711 24.5247 40.5294 24.7649 40.5332 25.2833C40.537 25.8031 40.1723 26.0522 39.4086 26.0522C38.6105 26.0522 38.2369 25.8005 38.2509 25.2694C38.2636 24.7534 38.6169 24.5247 39.3984 24.5247Z" fill="#E9EDF0"/>
<path fill-rule="evenodd" clip-rule="evenodd" d="M39.1084 35.967C44.1281 35.967 49.1465 35.967 54.1649 35.967C53.4838 36.7828 52.626 37.4093 51.8508 38.1235C50.6918 39.191 49.5163 40.2407 48.3484 41.2967C47.9138 41.6831 47.4525 42.0452 47.0522 42.4646C46.7371 42.795 46.4931 42.7429 46.2237 42.4557C45.8234 42.0287 45.3646 41.6691 44.9198 41.2942C44.6796 40.9307 44.2946 40.7211 43.9857 40.4301C43.208 39.6943 42.3693 39.022 41.5967 38.2798C40.7808 37.497 39.8658 36.8172 39.1084 35.967Z" fill="#E1E1E1"/>
<path fill-rule="evenodd" clip-rule="evenodd" d="M44.9225 41.2968C45.3673 41.6717 45.8261 42.0314 46.2264 42.4584C46.4958 42.7456 46.7398 42.7976 47.055 42.4672C47.4553 42.0479 47.9153 41.6857 48.3512 41.2994C48.9192 41.8191 49.4822 42.3452 50.0566 42.8586C50.8204 43.5411 51.6159 44.1879 52.353 44.8983C52.954 45.4778 53.6517 45.9569 54.1639 46.6304C49.1454 46.6304 44.127 46.6304 39.1099 46.6304C39.4174 46.1564 39.9105 45.8743 40.3108 45.4956C41.0999 44.7483 41.9374 44.0519 42.7431 43.3212C43.4751 42.6553 44.1956 41.9716 44.9225 41.2968Z" fill="#F2F2F2"/>
<path fill-rule="evenodd" clip-rule="evenodd" d="M44.9223 41.2968C44.1954 41.9728 43.4761 42.6553 42.7416 43.3212C41.9359 44.0519 41.0984 44.7483 40.3093 45.4955C39.909 45.8742 39.4172 46.1551 39.1084 46.6303C38.9444 46.4931 39.0143 46.3063 39.0143 46.1411C39.0105 42.9132 39.0105 39.6854 39.0143 36.4575C39.0143 36.2923 38.9444 36.1055 39.1096 35.9683C39.8658 36.8184 40.782 37.4983 41.6004 38.2837C42.3731 39.0246 43.2118 39.6968 43.9895 40.4339C44.2958 40.7236 44.6809 40.9333 44.9223 41.2968Z" fill="#F2F2F2"/>
<path fill-rule="evenodd" clip-rule="evenodd" d="M54.1623 46.6291C53.6502 45.9568 52.9525 45.4777 52.3514 44.897C51.6156 44.1866 50.8188 43.5397 50.055 42.8573C49.4806 42.3439 48.9177 41.8178 48.3496 41.298C49.5175 40.2407 50.693 39.1923 51.852 38.1248C52.6272 37.4106 53.485 36.7829 54.1661 35.9683C54.3224 36.1093 54.2563 36.2948 54.2563 36.46C54.2601 39.6866 54.2601 42.9132 54.2563 46.1398C54.2551 46.3038 54.3237 46.4905 54.1623 46.6291Z" fill="#F2F2F2"/>
<path fill-rule="evenodd" clip-rule="evenodd" d="M61.1201 34.0354C60.9701 34.1523 60.8901 34.2248 60.8011 34.282C60.4428 34.5145 60.0971 34.4789 59.8124 34.1727C59.5252 33.8639 59.5049 33.4915 59.7908 33.1827C60.3081 32.6248 60.838 32.0733 61.4073 31.5701C61.8839 31.1481 62.6184 31.4608 62.6311 32.0962C62.6629 33.6504 62.6514 35.2071 62.6349 36.7613C62.6298 37.1997 62.2575 37.5022 61.8457 37.4818C61.434 37.4615 61.1315 37.1476 61.1252 36.6876C61.1112 35.8323 61.1201 34.9758 61.1201 34.0354Z" fill="#F0EEEE"/>
</svg>
