<svg width="90" height="90" viewBox="0 0 90 90" fill="none" xmlns="http://www.w3.org/2000/svg">
<circle cx="45" cy="45" r="45" fill="#DBFDDF"/>
<mask id="path-2-outside-1_805_116" maskUnits="userSpaceOnUse" x="20.979" y="19.9453" width="49" height="51" fill="black">
<rect fill="white" x="20.979" y="19.9453" width="49" height="51"/>
<path fill-rule="evenodd" clip-rule="evenodd" d="M38.9433 69.5055C38.2723 69.3809 37.5944 69.2808 36.9302 69.1268C30.4595 67.6318 25.9321 63.8195 23.3756 57.6902C22.321 55.1621 21.906 52.5104 21.9894 49.7763C22.2425 41.4465 28.0982 34.1301 36.1837 32.0877C39.6437 31.2136 43.0851 31.348 46.4755 32.4762C46.865 32.6056 46.9895 32.6439 46.9748 32.1308C46.8208 26.8461 50.8145 22.0117 56.0217 21.1268C56.2739 21.0836 56.5525 21.1239 56.7752 20.9453C57.5972 20.9453 58.4193 20.9453 59.2414 20.9453C59.3022 21.0817 59.4298 21.0307 59.5308 21.0454C65.7505 21.9097 70.0738 28.1165 68.7661 34.2685C68.3688 36.1373 67.4427 37.7344 66.3714 39.2687C64.2956 42.2431 61.7852 44.8605 59.4671 47.6358C59.2767 47.8634 59.1992 48.0566 59.2316 48.3499C59.5828 51.5804 59.2071 54.7236 57.9524 57.7274C55.4076 63.8195 50.896 67.6131 44.4703 69.1209C43.7444 69.2916 42.9998 69.3799 42.264 69.5075C41.1564 69.5055 40.0499 69.5055 38.9433 69.5055ZM38.1997 33.3856C38.029 33.3149 37.8543 33.3571 37.6876 33.3895C35.2419 33.8574 32.9875 34.7855 30.9539 36.2275C28.4552 37.9993 26.5482 40.2742 25.2375 43.0426C25.163 43.1996 24.8628 43.4929 25.3876 43.492C28.2944 43.488 31.2021 43.488 34.1088 43.4939C34.3394 43.4939 34.4473 43.4203 34.4885 43.1839C34.567 42.7336 34.667 42.2873 34.7769 41.8429C35.5166 38.8606 36.427 35.948 38.1918 33.3797C38.1948 33.3806 38.1967 33.3836 38.1997 33.3856ZM67.4103 32.0847C67.3299 29.2055 66.3253 26.7313 64.1151 24.8242C61.7803 22.8112 59.0697 22.0921 56.0551 22.7308C52.8472 23.4106 50.5761 25.3177 49.3028 28.3245C48.1982 30.934 48.1824 33.5719 49.4803 36.1471C50.634 38.4368 52.2713 40.3851 53.9214 42.3177C55.079 43.6734 56.2739 44.9968 57.4423 46.3438C57.9023 46.8735 58.0868 46.8696 58.5371 46.333C59.4082 45.2931 60.296 44.267 61.1809 43.2388C62.8084 41.3494 64.4163 39.4453 65.7642 37.3381C66.7893 35.737 67.4535 34.0262 67.4103 32.0847ZM40.5551 57.0064C42.0393 57.0064 43.5236 57.0015 45.0079 57.0113C45.2826 57.0133 45.4327 56.9622 45.4856 56.6493C46.1125 52.9214 46.2361 49.1818 45.7947 45.4245C45.7584 45.1195 45.6681 45.0351 45.3689 45.0361C42.2895 45.0459 39.2101 45.0478 36.1307 45.0331C35.7972 45.0312 35.7 45.1499 35.6696 45.4501C35.5931 46.2035 35.4822 46.953 35.4057 47.7054C35.1036 50.6906 35.237 53.6641 35.65 56.6307C35.6892 56.9161 35.8001 57.0172 36.1013 57.0143C37.5865 56.9976 39.0708 57.0064 40.5551 57.0064ZM29.2607 45.0429C27.7744 45.0429 26.2892 45.0498 24.8029 45.0371C24.5234 45.0351 24.3899 45.1077 24.3066 45.3941C23.2019 49.1691 23.3098 52.9058 24.6273 56.6101C24.7205 56.873 24.8324 57.0162 25.1571 57.0152C28.0177 57.0005 30.8793 57.0015 33.74 57.0133C34.0686 57.0143 34.1402 56.9112 34.0961 56.6052C33.9921 55.8871 33.893 55.166 33.8312 54.443C33.5761 51.4411 33.6291 48.4461 34.099 45.4648C34.151 45.1332 34.0667 45.0302 33.7194 45.0351C32.2322 45.0527 30.7459 45.0429 29.2607 45.0429ZM51.8004 57.0064C53.2533 57.0064 54.7062 57.0035 56.1591 57.0093C56.3906 57.0103 56.5711 57.0064 56.6731 56.7288C57.6375 54.1065 57.973 51.4077 57.6953 48.6305C57.6757 48.4363 57.6267 48.2881 57.3853 48.2263C56.9439 48.1135 56.6162 47.8153 56.3239 47.469C55.7225 46.7578 55.1025 46.0622 54.5051 45.347C54.3167 45.1214 54.1137 45.0331 53.8154 45.0351C51.8573 45.0478 49.8992 45.042 47.9411 45.042C47.3456 45.042 47.3378 45.0429 47.4006 45.6257C47.7979 49.3054 47.6674 52.9705 47.0572 56.6179C47.0003 56.9613 47.0876 57.0143 47.3947 57.0113C48.8623 57.0005 50.3309 57.0064 51.8004 57.0064ZM40.7738 43.49C42.211 43.49 43.6492 43.4821 45.0864 43.4959C45.4091 43.4988 45.5445 43.4341 45.4798 43.077C45.0697 40.8246 44.5664 38.5967 43.6963 36.4689C43.2892 35.4722 42.8251 34.5029 42.0796 33.7063C41.3772 32.9559 40.7984 32.948 40.0449 33.6553C39.5799 34.0919 39.2131 34.6069 38.8981 35.1553C37.4747 37.6333 36.7066 40.3419 36.0924 43.1074C36.012 43.4694 36.1807 43.4949 36.4623 43.4929C37.8985 43.4861 39.3357 43.49 40.7738 43.49ZM43.2519 67.7456C48.9506 66.6694 53.064 63.6263 55.8128 58.6555C55.7264 58.6182 55.7 58.5956 55.6745 58.5956C52.7854 58.5927 49.8963 58.5957 47.0072 58.5849C46.7286 58.5839 46.6727 58.7183 46.6227 58.9439C45.9379 61.9998 45.0834 64.9919 43.2519 67.7456ZM40.5511 58.5917C39.161 58.5917 37.7719 58.5956 36.3818 58.5878C36.1189 58.5858 35.9934 58.5898 36.0689 58.939C36.5486 61.1492 37.1627 63.3114 38.1712 65.346C38.544 66.0975 38.955 66.8293 39.579 67.4061C40.2882 68.0624 40.819 68.0428 41.5076 67.3679C41.8834 67 42.1816 66.5713 42.4386 66.119C43.7306 63.847 44.4477 61.368 45.0442 58.8448C45.1207 58.5211 44.9216 58.5947 44.7666 58.5937C43.3618 58.5907 41.9569 58.5917 40.5511 58.5917ZM37.6091 67.6278C37.5895 67.3845 37.4433 67.2697 37.3619 67.1206C37.2716 66.9548 37.1647 66.7979 37.0744 66.6311C35.7726 64.2384 35.0418 61.6505 34.5012 59.0018C34.4316 58.6594 34.2992 58.5829 33.9744 58.5849C31.3071 58.5976 28.6387 58.5907 25.9713 58.5956C25.8438 58.5956 25.6908 58.5299 25.5848 58.6653C26.5766 60.9697 29.1861 63.8058 31.7936 65.397C33.5879 66.4918 35.5087 67.26 37.6091 67.6278ZM43.8954 33.4464C44.3967 34.2685 44.7911 35.0199 45.1168 35.8057C46.088 38.1494 46.6639 40.5989 47.07 43.0927C47.123 43.4203 47.2377 43.4998 47.5468 43.4969C49.188 43.4841 50.8292 43.492 52.4714 43.488C52.5676 43.488 52.6951 43.5508 52.7559 43.4115C51.929 42.3736 51.0794 41.3573 50.2867 40.2988C48.9987 38.5781 47.7812 36.8132 47.2583 34.6766C47.223 34.5343 47.1593 34.4284 47.0052 34.3675C46.0272 33.98 45.0305 33.6612 43.8954 33.4464Z"/>
</mask>
<path fill-rule="evenodd" clip-rule="evenodd" d="M38.9433 69.5055C38.2723 69.3809 37.5944 69.2808 36.9302 69.1268C30.4595 67.6318 25.9321 63.8195 23.3756 57.6902C22.321 55.1621 21.906 52.5104 21.9894 49.7763C22.2425 41.4465 28.0982 34.1301 36.1837 32.0877C39.6437 31.2136 43.0851 31.348 46.4755 32.4762C46.865 32.6056 46.9895 32.6439 46.9748 32.1308C46.8208 26.8461 50.8145 22.0117 56.0217 21.1268C56.2739 21.0836 56.5525 21.1239 56.7752 20.9453C57.5972 20.9453 58.4193 20.9453 59.2414 20.9453C59.3022 21.0817 59.4298 21.0307 59.5308 21.0454C65.7505 21.9097 70.0738 28.1165 68.7661 34.2685C68.3688 36.1373 67.4427 37.7344 66.3714 39.2687C64.2956 42.2431 61.7852 44.8605 59.4671 47.6358C59.2767 47.8634 59.1992 48.0566 59.2316 48.3499C59.5828 51.5804 59.2071 54.7236 57.9524 57.7274C55.4076 63.8195 50.896 67.6131 44.4703 69.1209C43.7444 69.2916 42.9998 69.3799 42.264 69.5075C41.1564 69.5055 40.0499 69.5055 38.9433 69.5055ZM38.1997 33.3856C38.029 33.3149 37.8543 33.3571 37.6876 33.3895C35.2419 33.8574 32.9875 34.7855 30.9539 36.2275C28.4552 37.9993 26.5482 40.2742 25.2375 43.0426C25.163 43.1996 24.8628 43.4929 25.3876 43.492C28.2944 43.488 31.2021 43.488 34.1088 43.4939C34.3394 43.4939 34.4473 43.4203 34.4885 43.1839C34.567 42.7336 34.667 42.2873 34.7769 41.8429C35.5166 38.8606 36.427 35.948 38.1918 33.3797C38.1948 33.3806 38.1967 33.3836 38.1997 33.3856ZM67.4103 32.0847C67.3299 29.2055 66.3253 26.7313 64.1151 24.8242C61.7803 22.8112 59.0697 22.0921 56.0551 22.7308C52.8472 23.4106 50.5761 25.3177 49.3028 28.3245C48.1982 30.934 48.1824 33.5719 49.4803 36.1471C50.634 38.4368 52.2713 40.3851 53.9214 42.3177C55.079 43.6734 56.2739 44.9968 57.4423 46.3438C57.9023 46.8735 58.0868 46.8696 58.5371 46.333C59.4082 45.2931 60.296 44.267 61.1809 43.2388C62.8084 41.3494 64.4163 39.4453 65.7642 37.3381C66.7893 35.737 67.4535 34.0262 67.4103 32.0847ZM40.5551 57.0064C42.0393 57.0064 43.5236 57.0015 45.0079 57.0113C45.2826 57.0133 45.4327 56.9622 45.4856 56.6493C46.1125 52.9214 46.2361 49.1818 45.7947 45.4245C45.7584 45.1195 45.6681 45.0351 45.3689 45.0361C42.2895 45.0459 39.2101 45.0478 36.1307 45.0331C35.7972 45.0312 35.7 45.1499 35.6696 45.4501C35.5931 46.2035 35.4822 46.953 35.4057 47.7054C35.1036 50.6906 35.237 53.6641 35.65 56.6307C35.6892 56.9161 35.8001 57.0172 36.1013 57.0143C37.5865 56.9976 39.0708 57.0064 40.5551 57.0064ZM29.2607 45.0429C27.7744 45.0429 26.2892 45.0498 24.8029 45.0371C24.5234 45.0351 24.3899 45.1077 24.3066 45.3941C23.2019 49.1691 23.3098 52.9058 24.6273 56.6101C24.7205 56.873 24.8324 57.0162 25.1571 57.0152C28.0177 57.0005 30.8793 57.0015 33.74 57.0133C34.0686 57.0143 34.1402 56.9112 34.0961 56.6052C33.9921 55.8871 33.893 55.166 33.8312 54.443C33.5761 51.4411 33.6291 48.4461 34.099 45.4648C34.151 45.1332 34.0667 45.0302 33.7194 45.0351C32.2322 45.0527 30.7459 45.0429 29.2607 45.0429ZM51.8004 57.0064C53.2533 57.0064 54.7062 57.0035 56.1591 57.0093C56.3906 57.0103 56.5711 57.0064 56.6731 56.7288C57.6375 54.1065 57.973 51.4077 57.6953 48.6305C57.6757 48.4363 57.6267 48.2881 57.3853 48.2263C56.9439 48.1135 56.6162 47.8153 56.3239 47.469C55.7225 46.7578 55.1025 46.0622 54.5051 45.347C54.3167 45.1214 54.1137 45.0331 53.8154 45.0351C51.8573 45.0478 49.8992 45.042 47.9411 45.042C47.3456 45.042 47.3378 45.0429 47.4006 45.6257C47.7979 49.3054 47.6674 52.9705 47.0572 56.6179C47.0003 56.9613 47.0876 57.0143 47.3947 57.0113C48.8623 57.0005 50.3309 57.0064 51.8004 57.0064ZM40.7738 43.49C42.211 43.49 43.6492 43.4821 45.0864 43.4959C45.4091 43.4988 45.5445 43.4341 45.4798 43.077C45.0697 40.8246 44.5664 38.5967 43.6963 36.4689C43.2892 35.4722 42.8251 34.5029 42.0796 33.7063C41.3772 32.9559 40.7984 32.948 40.0449 33.6553C39.5799 34.0919 39.2131 34.6069 38.8981 35.1553C37.4747 37.6333 36.7066 40.3419 36.0924 43.1074C36.012 43.4694 36.1807 43.4949 36.4623 43.4929C37.8985 43.4861 39.3357 43.49 40.7738 43.49ZM43.2519 67.7456C48.9506 66.6694 53.064 63.6263 55.8128 58.6555C55.7264 58.6182 55.7 58.5956 55.6745 58.5956C52.7854 58.5927 49.8963 58.5957 47.0072 58.5849C46.7286 58.5839 46.6727 58.7183 46.6227 58.9439C45.9379 61.9998 45.0834 64.9919 43.2519 67.7456ZM40.5511 58.5917C39.161 58.5917 37.7719 58.5956 36.3818 58.5878C36.1189 58.5858 35.9934 58.5898 36.0689 58.939C36.5486 61.1492 37.1627 63.3114 38.1712 65.346C38.544 66.0975 38.955 66.8293 39.579 67.4061C40.2882 68.0624 40.819 68.0428 41.5076 67.3679C41.8834 67 42.1816 66.5713 42.4386 66.119C43.7306 63.847 44.4477 61.368 45.0442 58.8448C45.1207 58.5211 44.9216 58.5947 44.7666 58.5937C43.3618 58.5907 41.9569 58.5917 40.5511 58.5917ZM37.6091 67.6278C37.5895 67.3845 37.4433 67.2697 37.3619 67.1206C37.2716 66.9548 37.1647 66.7979 37.0744 66.6311C35.7726 64.2384 35.0418 61.6505 34.5012 59.0018C34.4316 58.6594 34.2992 58.5829 33.9744 58.5849C31.3071 58.5976 28.6387 58.5907 25.9713 58.5956C25.8438 58.5956 25.6908 58.5299 25.5848 58.6653C26.5766 60.9697 29.1861 63.8058 31.7936 65.397C33.5879 66.4918 35.5087 67.26 37.6091 67.6278ZM43.8954 33.4464C44.3967 34.2685 44.7911 35.0199 45.1168 35.8057C46.088 38.1494 46.6639 40.5989 47.07 43.0927C47.123 43.4203 47.2377 43.4998 47.5468 43.4969C49.188 43.4841 50.8292 43.492 52.4714 43.488C52.5676 43.488 52.6951 43.5508 52.7559 43.4115C51.929 42.3736 51.0794 41.3573 50.2867 40.2988C48.9987 38.5781 47.7812 36.8132 47.2583 34.6766C47.223 34.5343 47.1593 34.4284 47.0052 34.3675C46.0272 33.98 45.0305 33.6612 43.8954 33.4464Z" fill="#F8BE3E"/>
<path fill-rule="evenodd" clip-rule="evenodd" d="M38.9433 69.5055C38.2723 69.3809 37.5944 69.2808 36.9302 69.1268C30.4595 67.6318 25.9321 63.8195 23.3756 57.6902C22.321 55.1621 21.906 52.5104 21.9894 49.7763C22.2425 41.4465 28.0982 34.1301 36.1837 32.0877C39.6437 31.2136 43.0851 31.348 46.4755 32.4762C46.865 32.6056 46.9895 32.6439 46.9748 32.1308C46.8208 26.8461 50.8145 22.0117 56.0217 21.1268C56.2739 21.0836 56.5525 21.1239 56.7752 20.9453C57.5972 20.9453 58.4193 20.9453 59.2414 20.9453C59.3022 21.0817 59.4298 21.0307 59.5308 21.0454C65.7505 21.9097 70.0738 28.1165 68.7661 34.2685C68.3688 36.1373 67.4427 37.7344 66.3714 39.2687C64.2956 42.2431 61.7852 44.8605 59.4671 47.6358C59.2767 47.8634 59.1992 48.0566 59.2316 48.3499C59.5828 51.5804 59.2071 54.7236 57.9524 57.7274C55.4076 63.8195 50.896 67.6131 44.4703 69.1209C43.7444 69.2916 42.9998 69.3799 42.264 69.5075C41.1564 69.5055 40.0499 69.5055 38.9433 69.5055ZM38.1997 33.3856C38.029 33.3149 37.8543 33.3571 37.6876 33.3895C35.2419 33.8574 32.9875 34.7855 30.9539 36.2275C28.4552 37.9993 26.5482 40.2742 25.2375 43.0426C25.163 43.1996 24.8628 43.4929 25.3876 43.492C28.2944 43.488 31.2021 43.488 34.1088 43.4939C34.3394 43.4939 34.4473 43.4203 34.4885 43.1839C34.567 42.7336 34.667 42.2873 34.7769 41.8429C35.5166 38.8606 36.427 35.948 38.1918 33.3797C38.1948 33.3806 38.1967 33.3836 38.1997 33.3856ZM67.4103 32.0847C67.3299 29.2055 66.3253 26.7313 64.1151 24.8242C61.7803 22.8112 59.0697 22.0921 56.0551 22.7308C52.8472 23.4106 50.5761 25.3177 49.3028 28.3245C48.1982 30.934 48.1824 33.5719 49.4803 36.1471C50.634 38.4368 52.2713 40.3851 53.9214 42.3177C55.079 43.6734 56.2739 44.9968 57.4423 46.3438C57.9023 46.8735 58.0868 46.8696 58.5371 46.333C59.4082 45.2931 60.296 44.267 61.1809 43.2388C62.8084 41.3494 64.4163 39.4453 65.7642 37.3381C66.7893 35.737 67.4535 34.0262 67.4103 32.0847ZM40.5551 57.0064C42.0393 57.0064 43.5236 57.0015 45.0079 57.0113C45.2826 57.0133 45.4327 56.9622 45.4856 56.6493C46.1125 52.9214 46.2361 49.1818 45.7947 45.4245C45.7584 45.1195 45.6681 45.0351 45.3689 45.0361C42.2895 45.0459 39.2101 45.0478 36.1307 45.0331C35.7972 45.0312 35.7 45.1499 35.6696 45.4501C35.5931 46.2035 35.4822 46.953 35.4057 47.7054C35.1036 50.6906 35.237 53.6641 35.65 56.6307C35.6892 56.9161 35.8001 57.0172 36.1013 57.0143C37.5865 56.9976 39.0708 57.0064 40.5551 57.0064ZM29.2607 45.0429C27.7744 45.0429 26.2892 45.0498 24.8029 45.0371C24.5234 45.0351 24.3899 45.1077 24.3066 45.3941C23.2019 49.1691 23.3098 52.9058 24.6273 56.6101C24.7205 56.873 24.8324 57.0162 25.1571 57.0152C28.0177 57.0005 30.8793 57.0015 33.74 57.0133C34.0686 57.0143 34.1402 56.9112 34.0961 56.6052C33.9921 55.8871 33.893 55.166 33.8312 54.443C33.5761 51.4411 33.6291 48.4461 34.099 45.4648C34.151 45.1332 34.0667 45.0302 33.7194 45.0351C32.2322 45.0527 30.7459 45.0429 29.2607 45.0429ZM51.8004 57.0064C53.2533 57.0064 54.7062 57.0035 56.1591 57.0093C56.3906 57.0103 56.5711 57.0064 56.6731 56.7288C57.6375 54.1065 57.973 51.4077 57.6953 48.6305C57.6757 48.4363 57.6267 48.2881 57.3853 48.2263C56.9439 48.1135 56.6162 47.8153 56.3239 47.469C55.7225 46.7578 55.1025 46.0622 54.5051 45.347C54.3167 45.1214 54.1137 45.0331 53.8154 45.0351C51.8573 45.0478 49.8992 45.042 47.9411 45.042C47.3456 45.042 47.3378 45.0429 47.4006 45.6257C47.7979 49.3054 47.6674 52.9705 47.0572 56.6179C47.0003 56.9613 47.0876 57.0143 47.3947 57.0113C48.8623 57.0005 50.3309 57.0064 51.8004 57.0064ZM40.7738 43.49C42.211 43.49 43.6492 43.4821 45.0864 43.4959C45.4091 43.4988 45.5445 43.4341 45.4798 43.077C45.0697 40.8246 44.5664 38.5967 43.6963 36.4689C43.2892 35.4722 42.8251 34.5029 42.0796 33.7063C41.3772 32.9559 40.7984 32.948 40.0449 33.6553C39.5799 34.0919 39.2131 34.6069 38.8981 35.1553C37.4747 37.6333 36.7066 40.3419 36.0924 43.1074C36.012 43.4694 36.1807 43.4949 36.4623 43.4929C37.8985 43.4861 39.3357 43.49 40.7738 43.49ZM43.2519 67.7456C48.9506 66.6694 53.064 63.6263 55.8128 58.6555C55.7264 58.6182 55.7 58.5956 55.6745 58.5956C52.7854 58.5927 49.8963 58.5957 47.0072 58.5849C46.7286 58.5839 46.6727 58.7183 46.6227 58.9439C45.9379 61.9998 45.0834 64.9919 43.2519 67.7456ZM40.5511 58.5917C39.161 58.5917 37.7719 58.5956 36.3818 58.5878C36.1189 58.5858 35.9934 58.5898 36.0689 58.939C36.5486 61.1492 37.1627 63.3114 38.1712 65.346C38.544 66.0975 38.955 66.8293 39.579 67.4061C40.2882 68.0624 40.819 68.0428 41.5076 67.3679C41.8834 67 42.1816 66.5713 42.4386 66.119C43.7306 63.847 44.4477 61.368 45.0442 58.8448C45.1207 58.5211 44.9216 58.5947 44.7666 58.5937C43.3618 58.5907 41.9569 58.5917 40.5511 58.5917ZM37.6091 67.6278C37.5895 67.3845 37.4433 67.2697 37.3619 67.1206C37.2716 66.9548 37.1647 66.7979 37.0744 66.6311C35.7726 64.2384 35.0418 61.6505 34.5012 59.0018C34.4316 58.6594 34.2992 58.5829 33.9744 58.5849C31.3071 58.5976 28.6387 58.5907 25.9713 58.5956C25.8438 58.5956 25.6908 58.5299 25.5848 58.6653C26.5766 60.9697 29.1861 63.8058 31.7936 65.397C33.5879 66.4918 35.5087 67.26 37.6091 67.6278ZM43.8954 33.4464C44.3967 34.2685 44.7911 35.0199 45.1168 35.8057C46.088 38.1494 46.6639 40.5989 47.07 43.0927C47.123 43.4203 47.2377 43.4998 47.5468 43.4969C49.188 43.4841 50.8292 43.492 52.4714 43.488C52.5676 43.488 52.6951 43.5508 52.7559 43.4115C51.929 42.3736 51.0794 41.3573 50.2867 40.2988C48.9987 38.5781 47.7812 36.8132 47.2583 34.6766C47.223 34.5343 47.1593 34.4284 47.0052 34.3675C46.0272 33.98 45.0305 33.6612 43.8954 33.4464Z" stroke="#F8BE3E" mask="url(#path-2-outside-1_805_116)"/>
<path fill-rule="evenodd" clip-rule="evenodd" d="M67.4106 32.0847C67.4528 34.0262 66.7896 35.7371 65.7654 37.3391C64.4175 39.4463 62.8096 41.3504 61.1821 43.2398C60.2963 44.2679 59.4095 45.2941 58.5383 46.334C58.088 46.8706 57.9036 46.8745 57.4435 46.3448C56.2751 44.9978 55.0802 43.6735 53.9226 42.3187C52.2716 40.3861 50.6343 38.4378 49.4816 36.1481C48.1847 33.5739 48.1994 30.935 49.304 28.3255C50.5774 25.3187 52.8484 23.4116 56.0563 22.7318C59.071 22.0931 61.7816 22.8112 64.1164 24.8252C66.3266 26.7313 67.3302 29.2055 67.4106 32.0847ZM53.8128 32.0995C53.803 34.4451 55.6188 36.3109 57.934 36.3325C60.258 36.3541 62.1396 34.4872 62.1602 32.1387C62.1808 29.851 60.2894 27.9086 58.0194 27.886C55.7042 27.8634 53.8226 29.747 53.8128 32.0995Z" fill="#51BE5F"/>
<path fill-rule="evenodd" clip-rule="evenodd" d="M38.2003 33.3862C38.1982 33.3841 38.195 33.3809 38.1929 33.3787C38.1929 33.3798 38.2003 33.3862 38.2003 33.3862Z" fill="#FCFDFE"/>
</svg>
