<svg width="90" height="90" viewBox="0 0 90 90" fill="none" xmlns="http://www.w3.org/2000/svg">
<circle cx="45" cy="45" r="45" fill="#DBFDDF"/>
<path fill-rule="evenodd" clip-rule="evenodd" d="M55.739 27.6419C55.7336 28.8088 55.7242 29.977 55.7229 31.1438C55.7215 35.9315 55.7229 40.7179 55.7215 45.5057C55.7215 45.7051 55.7109 45.9058 55.7055 46.1052C52.9932 46.1814 50.9766 48.198 50.9057 50.905C48.2295 50.905 45.5533 50.905 42.877 50.905C42.8021 48.1913 40.7909 46.1814 38.0773 46.1052C38.0666 44.2318 38.0545 42.3585 38.0438 40.4851C38.0492 40.3018 38.0599 40.1185 38.0599 39.9352C38.0612 36.527 38.0665 33.1188 38.0518 29.7107C38.0505 29.344 38.1295 29.2303 38.5148 29.237C39.9172 29.2624 41.3208 29.2504 42.7245 29.2463C44.1844 29.2423 45.2723 28.2267 45.2843 26.8645C45.2963 25.4742 44.2071 24.4358 42.7259 24.4305C41.1723 24.4251 39.6188 24.4225 38.0652 24.4198C37.8979 22.6548 38.6513 21.9791 40.4096 22.0005C45.3137 22.0607 50.2179 22.0219 55.1221 22.0219C55.3215 22.0219 55.5222 22.0326 55.7215 22.0379C55.7282 23.9073 55.7336 25.7753 55.739 27.6419ZM40.4698 37.2857C40.4738 40.813 43.3521 43.6926 46.878 43.6979C50.4293 43.7033 53.3183 40.8156 53.3143 37.263C53.3103 33.733 50.4347 30.8574 46.9048 30.8534C43.3481 30.8494 40.4658 33.729 40.4698 37.2857Z" fill="#51BE5F"/>
<path fill-rule="evenodd" clip-rule="evenodd" d="M58.1488 66.9623C56.7438 68.1011 55.1381 68.6068 53.3289 68.5908C50.2205 68.5627 47.1121 68.5774 44.0036 68.5868C43.261 68.5894 42.5946 68.3994 41.9777 67.986C39.719 66.4712 37.4509 64.9685 35.1909 63.4551C34.0187 62.6697 33.7484 61.3088 34.5178 60.1393C35.2149 59.0795 36.6614 58.8239 37.7908 59.5706C39.0433 60.3989 40.3198 61.1964 41.5268 62.0876C42.4046 62.7352 43.2931 63.0055 44.3716 62.77C45.2293 62.5827 46.1125 62.5091 46.9809 62.3659C48.1665 62.1705 48.8329 61.084 48.4916 59.9386C48.4033 59.6429 48.1625 59.7526 47.9912 59.7593C47.1977 59.7927 46.5099 59.5773 45.96 58.9832C45.2534 58.2191 45.0982 57.3547 45.4863 56.3939C45.8194 55.5683 46.7427 54.9407 47.6486 54.9381C49.7709 54.9327 51.8958 54.8819 54.0154 54.9541C55.9275 55.0197 57.5613 55.7891 58.8245 57.2664C58.8566 57.3039 58.9048 57.3266 58.945 57.3547C59.9004 58.5456 60.4651 59.9024 60.5266 61.4265C60.6176 63.6384 59.784 65.4797 58.1488 66.9623Z" fill="#FED9AA"/>
<path fill-rule="evenodd" clip-rule="evenodd" d="M38.0665 24.4212C39.62 24.4252 41.1736 24.4266 42.7271 24.4319C44.2084 24.4373 45.2976 25.4756 45.2856 26.8659C45.2735 28.2281 44.1856 29.2437 42.7258 29.2478C41.3221 29.2518 39.9184 29.2638 38.5161 29.2384C38.1307 29.2317 38.0517 29.3454 38.0531 29.7121C38.0678 33.1203 38.0624 36.5284 38.0611 39.9366C38.0611 40.1199 38.0504 40.3032 38.0451 40.4865C36.8782 40.441 35.7074 40.5789 34.5432 40.4063C33.0378 40.1828 31.8804 39.4054 30.9865 38.1984C30.9477 38.1462 30.8862 38.1127 30.8353 38.0699C30.7202 37.8116 30.6119 37.5521 30.4901 37.2978C30.2198 36.7345 30.0552 36.1297 30.0472 35.5168C30.0177 33.4789 30.0351 31.4409 30.0378 29.403C30.0378 29.2879 30.0686 29.1728 30.0806 29.0578C30.1622 28.2629 30.5329 27.5684 30.8353 26.8499C31.4883 26.1179 32.1253 25.3779 33.0566 24.9631C33.7979 24.634 34.5566 24.4332 35.3675 24.4319C36.2667 24.4292 37.1659 24.4239 38.0665 24.4212Z" fill="#FED9A9"/>
<path fill-rule="evenodd" clip-rule="evenodd" d="M26.8332 38.09C26.8078 38.8808 26.8078 38.8808 25.9956 38.8808C24.794 38.8808 23.591 38.8701 22.3894 38.8888C22.0763 38.8942 22 38.7992 22 38.4941C22.0094 34.2028 22.0094 29.9128 22 25.6215C22 25.3177 22.0736 25.2227 22.3881 25.2267C23.7395 25.2441 25.0924 25.2441 26.4452 25.2267C26.7664 25.2227 26.844 25.3284 26.8292 25.6268C26.8078 26.0256 26.8306 26.427 26.8332 26.8285C26.8332 30.5819 26.8332 34.3366 26.8332 38.09Z" fill="#F8BE3E"/>
<path fill-rule="evenodd" clip-rule="evenodd" d="M63.7393 57.3333C63.7433 56.9158 63.7593 56.4983 63.7446 56.0821C63.7352 55.8292 63.8035 55.7315 64.0765 55.7342C65.4614 55.7462 66.8477 55.7462 68.2326 55.7342C68.4989 55.7315 68.5698 55.8172 68.5698 56.0768C68.5632 60.1339 68.5632 64.1897 68.5698 68.2468C68.5698 68.5051 68.4989 68.5921 68.2326 68.5894C66.8477 68.5774 65.4614 68.5774 64.0765 68.5894C63.8035 68.5921 63.7352 68.4944 63.7446 68.2415C63.7593 67.8254 63.7433 67.4079 63.7393 66.9904C63.7393 63.7709 63.7393 60.5514 63.7393 57.3333Z" fill="#F8BE3E"/>
<path fill-rule="evenodd" clip-rule="evenodd" d="M26.8335 38.09C26.8335 34.3352 26.8335 30.5818 26.8335 26.8271C28.1676 26.8338 29.5017 26.8405 30.8358 26.8485C30.5334 27.5671 30.1627 28.2615 30.0811 29.0564C30.069 29.1715 30.0383 29.2865 30.0383 29.4016C30.0356 31.4395 30.0182 33.4788 30.0476 35.5154C30.057 36.1283 30.2203 36.7318 30.4906 37.2965C30.6123 37.5507 30.7207 37.8116 30.8358 38.0685C29.5017 38.0766 28.1676 38.0833 26.8335 38.09Z" fill="#FED9A9"/>
<path fill-rule="evenodd" clip-rule="evenodd" d="M63.7395 57.3333C63.7395 60.5527 63.7395 63.7709 63.7395 66.9904C61.8755 66.981 60.0116 66.973 58.1489 66.9636C59.7841 65.4797 60.6177 63.6384 60.5281 61.4278C60.4665 59.9037 59.9018 58.5469 58.9464 57.356C60.5441 57.348 62.1418 57.3399 63.7395 57.3333Z" fill="#FED9AA"/>
<path fill-rule="evenodd" clip-rule="evenodd" d="M38.0786 46.1066C40.7923 46.1828 42.8021 48.1927 42.8784 50.9064C41.3757 50.9117 39.8717 50.9131 38.369 50.9278C38.1295 50.9305 38.0545 50.8555 38.0572 50.616C38.0719 49.112 38.0733 47.6093 38.0786 46.1066Z" fill="#51BE5F"/>
<path fill-rule="evenodd" clip-rule="evenodd" d="M50.9058 50.9064C50.9767 48.1994 52.9932 46.1828 55.7056 46.1066C55.7109 47.6093 55.7123 49.1133 55.727 50.616C55.7296 50.8555 55.6547 50.9305 55.4152 50.9278C53.9125 50.9131 52.4098 50.9117 50.9058 50.9064Z" fill="#51BE5F"/>
<path fill-rule="evenodd" clip-rule="evenodd" d="M55.7392 27.642C55.7339 25.774 55.7285 23.906 55.7231 22.0393C56.0229 22.0353 56.324 22.0112 56.6237 22.0286C57.4212 22.0755 58.0983 22.7137 58.1197 23.5113C58.1531 24.7958 58.1237 26.0818 58.1384 27.3664C58.1411 27.6487 57.9939 27.6447 57.7945 27.6433C57.1081 27.6393 56.4243 27.642 55.7392 27.642Z" fill="#51BE5F"/>
<path fill-rule="evenodd" clip-rule="evenodd" d="M40.4697 37.2857C40.4657 33.729 43.348 30.8494 46.9047 30.8534C50.4333 30.8574 53.3089 33.7344 53.3142 37.263C53.3182 40.8143 50.4306 43.7019 46.878 43.6979C43.352 43.6925 40.4737 40.813 40.4697 37.2857ZM44.4961 38.8807C44.4131 38.8807 44.3288 38.8807 44.2459 38.8807C43.6063 38.882 43.5862 38.9008 43.7789 39.531C44.0826 40.5212 44.7717 41.0846 45.7753 41.2719C45.9479 41.304 46.1299 41.3 46.0858 41.5449C45.9854 42.0962 46.3025 42.139 46.72 42.0962C46.9181 42.0761 47.1215 42.0788 47.3208 42.0962C47.5911 42.1189 47.745 42.0373 47.6942 41.7403C47.6353 41.4004 47.7852 41.308 48.113 41.2465C49.2196 41.0351 50.0185 40.1372 50.0988 39.0868C50.1804 38.0163 49.5421 37.0247 48.5573 36.6313C48.2762 36.5189 47.8521 36.6233 47.7276 36.3236C47.6152 36.052 47.6982 35.6987 47.6955 35.3816C47.6955 35.3147 47.7009 35.2478 47.6955 35.1809C47.6647 34.8035 47.8574 34.853 48.0876 34.9748C48.2241 35.047 48.3606 35.146 48.3913 35.2932C48.4689 35.6559 48.7031 35.7014 49.0149 35.6746C49.2477 35.6545 49.4846 35.6505 49.7161 35.6746C50.0814 35.7134 50.1496 35.5515 50.0707 35.237C49.8151 34.2 49.1875 33.5189 48.1331 33.3128C47.7798 33.2446 47.7116 33.1295 47.6795 32.7843C47.6152 32.0925 47.0559 32.5622 46.7361 32.4846C46.5407 32.4364 46.0577 32.2236 46.0992 32.7856C46.1259 33.1469 46.0001 33.2459 45.6509 33.3128C44.5469 33.5269 43.7535 34.4395 43.6865 35.49C43.617 36.5792 44.2874 37.5841 45.2976 37.9494C45.5559 38.0431 45.9372 37.9414 46.0563 38.2036C46.1647 38.4391 46.0858 38.7616 46.0898 39.0453C46.0898 39.0948 46.0965 39.147 46.0884 39.1952C46.0603 39.3491 46.1835 39.5819 46.0001 39.6421C45.778 39.7143 45.5171 39.5551 45.4689 39.3638C45.3244 38.7817 44.9002 38.874 44.4961 38.8807Z" fill="#F8BE3E"/>
<path fill-rule="evenodd" clip-rule="evenodd" d="M44.4962 38.8807C44.9003 38.874 45.3245 38.7804 45.469 39.3624C45.5172 39.5551 45.7794 39.7143 46.0002 39.6407C46.1822 39.5805 46.0604 39.3477 46.0885 39.1938C46.0966 39.1457 46.0899 39.0935 46.0899 39.0439C46.0859 38.7603 46.1648 38.4391 46.0564 38.2023C45.936 37.94 45.5546 38.0417 45.2977 37.948C44.2874 37.5827 43.6171 36.5778 43.6866 35.4886C43.7535 34.4382 44.547 33.5256 45.651 33.3115C46.0002 33.2446 46.126 33.1456 46.0992 32.7843C46.0578 32.2223 46.5395 32.435 46.7362 32.4832C47.056 32.5622 47.6153 32.0911 47.6796 32.7829C47.7117 33.1268 47.7812 33.2419 48.1332 33.3115C49.1876 33.5176 49.8152 34.1987 50.0707 35.2357C50.1484 35.5501 50.0801 35.7121 49.7162 35.6733C49.4847 35.6492 49.2478 35.6532 49.015 35.6733C48.7045 35.7 48.469 35.6545 48.3914 35.2919C48.3606 35.146 48.2241 35.0457 48.0877 34.9734C47.8588 34.8517 47.6648 34.8022 47.6956 35.1795C47.701 35.2464 47.6956 35.3133 47.6956 35.3802C47.6983 35.6974 47.614 36.0506 47.7277 36.3223C47.8535 36.622 48.2763 36.5176 48.5573 36.63C49.5408 37.0247 50.1805 38.0149 50.0988 39.0854C50.0186 40.1359 49.2197 41.0337 48.1131 41.2452C47.7853 41.3081 47.6354 41.399 47.6943 41.7389C47.7464 42.036 47.5926 42.1176 47.3209 42.0948C47.1215 42.0774 46.9182 42.0748 46.7201 42.0948C46.304 42.1377 45.9855 42.0949 46.0859 41.5436C46.13 41.3 45.948 41.304 45.7754 41.2706C44.7718 41.0832 44.0827 40.5212 43.779 39.5297C43.5863 38.8994 43.605 38.8807 44.246 38.8794C44.3289 38.8807 44.4119 38.8807 44.4962 38.8807ZM46.0912 35.6746C46.0912 35.5247 46.0966 35.3748 46.0885 35.2263C46.0832 35.1166 46.1407 34.9734 46.0243 34.9065C45.8932 34.8303 45.766 34.9293 45.6563 34.9962C45.2536 35.2424 45.1639 35.799 45.4636 36.1697C45.5934 36.3316 45.7741 36.4855 45.9668 36.4413C46.209 36.3851 46.0511 36.1336 46.0872 35.973C46.1086 35.878 46.0912 35.775 46.0912 35.6746ZM47.6929 38.8914C47.6929 38.9583 47.6809 39.0266 47.6956 39.0895C47.7411 39.2808 47.5551 39.6006 47.8227 39.6448C48.1131 39.6929 48.3339 39.4454 48.4436 39.1604C48.5627 38.8513 48.4931 38.5703 48.2764 38.3308C48.1519 38.1929 47.982 38.0578 47.8027 38.1099C47.5899 38.1715 47.721 38.3936 47.6983 38.5435C47.6782 38.6559 47.6929 38.775 47.6929 38.8914Z" fill="#FEFEFD"/>
<path fill-rule="evenodd" clip-rule="evenodd" d="M46.0914 35.6746C46.0914 35.7737 46.1088 35.878 46.0873 35.973C46.0526 36.1349 46.2105 36.3865 45.9669 36.4414C45.7742 36.4855 45.5936 36.3316 45.4638 36.1697C45.1641 35.7977 45.2537 35.2424 45.6565 34.9962C45.7662 34.9293 45.8933 34.8303 46.0245 34.9066C46.1409 34.9735 46.082 35.1166 46.0887 35.2264C46.0967 35.3762 46.0914 35.5261 46.0914 35.6746Z" fill="#FEDB4C"/>
<path fill-rule="evenodd" clip-rule="evenodd" d="M47.693 38.8915C47.693 38.7751 47.6783 38.6573 47.697 38.5436C47.7211 38.3937 47.59 38.1716 47.8014 38.11C47.9807 38.0578 48.1506 38.193 48.2751 38.3308C48.4932 38.5704 48.5628 38.8514 48.4423 39.1605C48.3313 39.4455 48.1118 39.693 47.8214 39.6448C47.5552 39.6007 47.7398 39.2809 47.6943 39.0895C47.6809 39.0266 47.693 38.9571 47.693 38.8915Z" fill="#FEDB4C"/>
</svg>
