<svg width="90" height="90" viewBox="0 0 90 90" fill="none" xmlns="http://www.w3.org/2000/svg">
<circle cx="45" cy="45" r="45" fill="#DBFDDF"/>
<path fill-rule="evenodd" clip-rule="evenodd" d="M37.5884 70.9917C32.7771 70.9946 27.9658 71.0079 23.1545 70.9931C20.9903 70.9872 19.0076 68.9529 19.0046 66.7665C18.9973 60.8863 19.0002 55.0062 19.0032 49.1261C19.0046 45.921 21.1276 43.6918 24.3193 43.5353L24.309 43.5441C26.2799 45.7099 28.2478 47.8771 30.2246 50.0369C30.3619 50.186 30.4445 50.443 30.7309 50.3957C30.7442 50.6452 30.9539 50.7603 31.0926 50.9257C31.7466 51.7081 32.5291 52.3798 33.0827 53.2479C33.1122 53.4516 32.9705 53.5919 32.8849 53.7484C31.3126 56.6228 29.7359 59.4956 28.1651 62.3715C28.0574 62.5693 27.8831 62.7494 27.8964 63.0284C29.4657 63.0284 31.0144 63.0078 32.5601 63.0417C33.0015 63.0521 33.2038 62.8897 33.4016 62.528C36.4531 56.9372 39.5209 51.3553 42.5783 45.7675C42.8145 45.3349 43.1098 44.9289 43.2545 44.4477C44.4444 44.9777 45.277 45.8959 45.9561 46.9677C47.3453 49.16 48.7242 51.3597 50.1089 53.5535C50.2064 53.7071 50.3201 53.8503 50.4279 53.9979C49.9362 57.3402 49.4446 60.6826 48.953 64.025C48.1588 63.4138 47.363 62.8026 46.5688 62.1914C46.4684 61.8386 46.1185 61.7175 45.9 61.4739C45.897 61.4045 45.8882 61.3425 45.7922 61.3573L45.8011 61.3661C45.807 61.2834 45.8262 61.1875 45.6859 61.2451L45.6918 61.251C45.8055 61.0133 45.587 60.8907 45.4955 60.7372C44.527 59.1088 43.5467 57.4879 42.5709 55.8654C42.7126 55.5938 42.9356 55.3664 42.9223 55.018C42.9001 54.4481 42.9267 53.8768 42.9134 53.307C42.9001 52.743 42.5458 52.3931 42.0232 52.3976C41.5021 52.402 41.1611 52.7519 41.1478 53.3232C41.136 53.8561 41.1404 54.3906 41.1463 54.9235C41.1522 55.5805 41.3707 55.8241 42.0409 55.9451C42.0336 56.794 42.0276 57.6429 42.0203 58.4918C41.8741 58.4873 41.7265 58.4814 41.5803 58.48C40.4967 58.4726 39.7527 59.3318 39.9342 60.3918C40.0317 60.9572 40.451 61.2997 40.854 61.6496C41.2526 61.9965 41.6453 62.3493 42.0409 62.7007C42.035 62.8041 42.0276 62.9074 42.0217 63.0107C40.7344 63.0152 39.4456 63.0432 38.1582 63.0137C37.6888 63.0019 37.5869 63.1407 37.5899 63.5924C37.6105 66.0608 37.5928 68.5262 37.5884 70.9917ZM25.2022 57.9913C25.2022 59.2639 25.2022 60.5364 25.2022 61.809C25.2022 63.0403 25.2022 63.0225 26.4142 63.0373C26.8364 63.0417 26.987 62.9399 26.9841 62.4852C26.9634 59.4794 26.9752 56.4722 26.9723 53.4649C26.9723 52.7622 26.6475 52.3872 26.0658 52.399C25.5107 52.4108 25.2036 52.7785 25.2022 53.4517C25.2007 54.9663 25.2022 56.4796 25.2022 57.9913ZM29.5868 68.3432C30.5848 68.3299 30.5183 68.4731 30.5139 67.6257C30.508 66.4624 30.6616 66.5731 29.7566 66.576C28.6346 66.579 28.7453 66.4269 28.7483 67.3732C28.7512 68.4613 28.6036 68.3299 29.5868 68.3432ZM34.06 67.4898C34.0467 66.5066 34.1899 66.5686 33.3307 66.5731C32.1763 66.5804 32.2899 66.4239 32.2914 67.3407C32.2929 68.4376 32.1482 68.3431 33.0443 68.3387C34.1885 68.3343 34.0452 68.4923 34.06 67.4898Z" fill="#51BE5F"/>
<path fill-rule="evenodd" clip-rule="evenodd" d="M48.9528 64.0263C49.4444 60.6839 49.936 57.3416 50.4277 53.9992C50.7259 51.9974 51.0314 49.9955 51.3223 47.9907C51.495 46.7963 52.152 46.2043 53.3655 46.2014C54.2321 46.1984 55.0987 46.2029 55.9653 46.2043C55.7837 46.9543 55.6154 47.7087 55.4161 48.4527C55.3363 48.748 55.3467 48.8646 55.7098 48.8632C59.0478 48.8499 62.3857 48.8513 65.7237 48.8617C66.0189 48.8632 66.1326 48.7701 66.202 48.4793C66.3821 47.7116 66.6065 46.9543 66.8132 46.1925C67.3845 46.194 67.9558 46.191 68.5272 46.1999C69.7185 46.2191 70.5202 47.1492 70.3475 48.3273C70.002 50.6953 69.6432 53.0603 69.2919 55.4268C69.2668 55.5907 69.2565 55.756 69.2402 55.9214C68.2098 55.9273 67.1808 55.9347 66.1503 55.9406C65.0549 55.9465 64.3965 56.4883 64.1839 57.563C63.8399 59.3095 63.4974 61.0545 63.1534 62.801C62.9231 63.9732 63.5845 64.7866 64.7833 64.7955C65.8314 64.8028 66.8811 64.8014 67.9292 64.8028C67.7093 66.3146 67.4923 67.8248 67.2679 69.3351C67.1217 70.3198 66.447 70.9842 65.4963 70.9856C60.1904 70.9945 54.8846 70.9812 49.5773 70.9753C48.5262 70.4793 48.1128 69.7972 48.2575 68.8199C48.4907 67.2255 48.7196 65.6251 48.9528 64.0263Z" fill="#F8BE3E"/>
<path fill-rule="evenodd" clip-rule="evenodd" d="M24.3194 43.5368C24.3194 41.4375 24.3209 39.3382 24.3209 37.2389C24.4523 37.2477 24.5113 37.1429 24.5866 37.0676C25.5507 36.1021 26.5058 35.1278 27.4846 34.1785C27.7622 33.9083 27.7814 33.7961 27.4418 33.5393C26.0364 32.4763 26.1943 30.4139 27.712 29.6344C28.1859 29.3908 28.6967 29.3318 29.2163 29.3775C29.5323 29.4056 29.6681 29.2831 29.7611 28.9848C29.9958 28.2304 30.2675 27.4864 30.5244 26.7394C30.5952 26.7645 30.6661 26.7896 30.7384 26.8147C30.9097 26.921 31.078 27.0346 31.2536 27.1336C34.2254 28.8047 37.4246 29.7658 40.8024 30.16C41.1951 31.4399 41.7768 32.6476 42.2477 33.898C42.447 34.4265 42.6625 34.9506 42.9091 35.5736C41.9111 35.5736 40.9869 35.6061 40.0642 35.5618C39.518 35.5352 39.2877 35.671 39.363 36.2512C39.4102 36.6115 39.363 36.985 39.3571 37.3511C38.6027 37.3496 37.8483 37.3466 37.0939 37.3466C35.8036 37.3452 35.8169 37.3467 35.8213 38.6192C35.8228 38.9986 35.9276 39.1359 36.3203 39.1256C37.3316 39.1005 38.3444 39.1138 39.3571 39.1123C39.3615 39.7899 39.3984 40.469 39.36 41.1437C39.3054 42.1107 38.4329 43.2637 37.3833 43.4453C36.5728 43.6475 35.7461 43.4955 34.9282 43.556C33.1729 43.5575 31.4175 43.559 29.6622 43.559C27.8773 43.5545 26.0925 43.5501 24.3091 43.5457L24.3194 43.5368ZM35.8169 32.9148C36.7721 32.9236 37.5826 32.1382 37.6018 31.1845C37.621 30.1969 36.8297 29.382 35.8435 29.3746C34.8809 29.3672 34.0808 30.1408 34.0601 31.1019C34.038 32.0851 34.8337 32.9059 35.8169 32.9148Z" fill="#FDC8A2"/>
<path fill-rule="evenodd" clip-rule="evenodd" d="M34.9293 43.5546C35.7472 43.494 36.574 43.6446 37.3845 43.4438C38.0252 43.6638 38.6851 43.525 39.3332 43.5368C40.5157 43.559 41.6923 43.5767 42.7878 44.1052C42.9649 44.1909 43.1804 44.2248 43.2543 44.4507C43.1096 44.932 42.8143 45.3365 42.5781 45.7705C39.5207 51.3583 36.4529 56.9403 33.4014 62.531C33.2036 62.8927 33.0013 63.0551 32.5599 63.0448C31.0127 63.0093 29.4655 63.0315 27.8962 63.0315C27.8829 62.7525 28.0557 62.5724 28.1649 62.3745C29.7357 59.4987 31.3139 56.6273 32.8847 53.7514C32.9703 53.5949 33.112 53.4547 33.0825 53.2509C33.7277 52.3799 34.1454 51.3775 34.6887 50.4489C34.7773 50.2969 34.7227 50.1241 34.6961 49.9632C34.6075 49.4391 34.5293 48.9121 34.4171 48.3939C34.1292 47.0741 33.9624 45.769 34.6223 44.495C34.7714 44.2027 34.8304 43.869 34.9293 43.5546Z" fill="#5ECE6D"/>
<path fill-rule="evenodd" clip-rule="evenodd" d="M30.7397 26.8161C30.6689 26.791 30.598 26.7659 30.5257 26.7408C28.4603 26.7335 26.3964 26.7276 24.3311 26.7202C23.7878 25.3723 23.2209 24.0348 22.7086 22.6751C22.1358 21.153 23.1766 19.6413 24.8006 19.6369C29.7949 19.6236 34.7907 19.6251 39.7851 19.6369C41.2407 19.6398 42.1796 20.815 41.9788 22.3193C41.378 22.309 40.7757 22.3208 40.1763 22.2824C39.2477 22.2248 38.5036 22.5452 37.9353 23.2819C37.7507 23.0973 37.516 23.1785 37.3034 23.1785C34.2415 23.1726 31.1782 23.1741 28.1163 23.1741C26.9692 23.1741 26.9988 23.1756 26.9589 24.2946C26.9397 24.8438 27.1257 24.9619 27.6454 24.9575C30.9656 24.9339 34.2873 24.9457 37.6075 24.9457C37.8629 25.7473 38.3457 26.3408 39.1547 26.6346C38.9731 26.7704 38.7635 26.7128 38.5656 26.7143C36.1489 26.7187 33.7337 26.7158 31.317 26.7202C31.1236 26.7187 30.9095 26.6493 30.7397 26.8161Z" fill="#51BE5F"/>
<path fill-rule="evenodd" clip-rule="evenodd" d="M66.81 46.1941C66.6033 46.9559 66.3789 47.7132 66.1988 48.4809C66.1309 48.7717 66.0172 48.8648 65.7205 48.8633C62.3826 48.8544 59.0447 48.8515 55.7067 48.8648C55.3436 48.8662 55.3332 48.7481 55.4129 48.4543C55.6122 47.7088 55.782 46.9559 55.9621 46.2059C56.4508 44.9614 57.3469 44.3458 58.6977 44.4299C58.7346 44.4329 58.7715 44.4314 58.8084 44.4299C59.1937 44.4211 59.6381 44.5289 59.9482 44.3724C60.2538 44.2188 60.177 43.7154 60.3025 43.3759C60.6243 42.5034 61.5485 41.8036 62.4357 41.774C63.4071 41.743 64.0345 42.4546 63.8648 43.4098C63.8072 43.7331 63.7246 44.0535 63.6419 44.4299C64.1468 44.4299 64.6206 44.4299 65.0945 44.4299C66.4188 44.4314 66.8676 44.8935 66.81 46.1941Z" fill="#51BE5F"/>
<path fill-rule="evenodd" clip-rule="evenodd" d="M48.9532 64.0264C48.7199 65.6252 48.4911 67.2256 48.2548 68.8259C48.1102 69.8032 48.5236 70.4853 49.5747 70.9813C47.062 70.9843 44.5508 70.9887 42.0381 70.9931C42.0367 68.6325 42.0337 66.2733 42.0322 63.9127C42.3423 63.7725 42.6907 63.712 42.9549 63.4743C43.6517 63.3547 44.2556 62.9782 44.9184 62.7642C45.472 62.5855 45.9636 62.2268 46.5689 62.1958C47.3632 62.804 48.1574 63.4152 48.9532 64.0264Z" fill="#FDC8A2"/>
<path fill-rule="evenodd" clip-rule="evenodd" d="M67.9267 64.806C66.8785 64.8045 65.8289 64.806 64.7807 64.7986C63.582 64.7898 62.9206 63.9748 63.1509 62.8041C63.4949 61.0577 63.8374 59.3112 64.1813 57.5662C64.3939 56.4914 65.0509 55.9496 66.1478 55.9437C67.1782 55.9378 68.2072 55.9319 69.2377 55.9246C69.967 56.3438 70.5221 56.8768 70.3464 57.8128C70.1309 58.9643 69.8828 60.1084 69.6511 61.257C69.5418 61.7958 69.4089 62.3302 69.3395 62.8735C69.2259 63.7918 68.7785 64.4399 67.9267 64.806Z" fill="#FDC8A2"/>
<path fill-rule="evenodd" clip-rule="evenodd" d="M42.0321 63.9114C42.0336 66.272 42.0365 68.6311 42.038 70.9918C40.5543 70.9918 39.0721 70.9917 37.5884 70.9932C37.5928 68.5278 37.6105 66.0623 37.5913 63.5969C37.5884 63.1452 37.6903 63.0064 38.1597 63.0182C39.4471 63.0492 40.7344 63.0212 42.0232 63.0153C42.0247 63.3135 42.0276 63.6117 42.0321 63.9114Z" fill="#5ECE6D"/>
<path fill-rule="evenodd" clip-rule="evenodd" d="M30.7397 26.8161C30.9095 26.6493 31.1251 26.7201 31.3199 26.7201C33.7367 26.7157 36.1519 26.7187 38.5686 26.7142C38.7664 26.7142 38.9761 26.7703 39.1577 26.6345C39.5312 26.7187 39.9061 26.7482 40.287 26.6921C41.3263 26.9121 42.3686 27.1232 43.4065 27.355C44.2731 27.5484 44.7617 28.1728 44.6805 28.9464C44.5949 29.7466 43.966 30.2692 43.058 30.2544C42.3066 30.2426 41.5552 30.1939 40.8052 30.1599C37.4274 29.7658 34.2297 28.8047 31.2565 27.1335C31.0778 27.0346 30.911 26.9224 30.7397 26.8161Z" fill="#51BE5F"/>
<path fill-rule="evenodd" clip-rule="evenodd" d="M24.3311 26.7188C26.3965 26.7261 28.4604 26.732 30.5257 26.7394C30.2688 27.4879 29.9957 28.2305 29.7625 28.9849C29.6694 29.2831 29.5351 29.4056 29.2177 29.3776C28.698 29.3318 28.1872 29.3909 27.7133 29.6345C26.1957 30.4139 26.0377 32.4749 27.4432 33.5393C27.7813 33.7962 27.7635 33.9084 27.486 34.1785C26.5072 35.1293 25.552 36.1037 24.588 37.0677C24.5127 37.143 24.4537 37.2478 24.3223 37.2389C24.3252 33.7327 24.3282 30.225 24.3311 26.7188Z" fill="black"/>
<path fill-rule="evenodd" clip-rule="evenodd" d="M40.2855 26.6923C39.9047 26.7484 39.5297 26.7188 39.1562 26.6347C38.3472 26.3409 37.8629 25.7474 37.609 24.9458C37.5544 24.3582 37.6548 23.8016 37.9382 23.282C38.5051 22.5468 39.2492 22.225 40.1793 22.2825C40.7786 22.3194 41.381 22.3091 41.9818 22.3194C41.5064 23.812 40.8406 25.2307 40.2855 26.6923Z" fill="#FBB333"/>
<path fill-rule="evenodd" clip-rule="evenodd" d="M39.3586 39.1109C38.3459 39.1123 37.3332 39.0991 36.3219 39.1242C35.9292 39.1345 35.8244 38.9972 35.8229 38.6178C35.8185 37.3452 35.8052 37.3452 37.0955 37.3452C37.8499 37.3452 38.6042 37.3482 39.3586 37.3496C39.3586 37.9357 39.3586 38.5233 39.3586 39.1109Z" fill="#FDB683"/>
<path fill-rule="evenodd" clip-rule="evenodd" d="M34.9295 43.5546C34.8291 43.8675 34.7716 44.2027 34.6225 44.4906C33.9626 45.7646 34.1294 47.0697 34.4173 48.3895C34.5309 48.9077 34.6077 49.4347 34.6963 49.9588C34.7244 50.1197 34.7775 50.2924 34.6889 50.4445C34.1442 51.3746 33.7264 52.3755 33.0827 53.2465C32.5291 52.3784 31.7466 51.7067 31.0926 50.9243C30.9539 50.7589 30.7442 50.6438 30.7309 50.3943C30.9273 49.1394 31.1059 47.8802 31.3348 46.6312C31.3938 46.3035 31.3288 46.0717 31.1561 45.8148C30.6497 45.0678 30.1611 44.309 29.665 43.556C31.4189 43.5575 33.1742 43.556 34.9295 43.5546Z" fill="#F8BE3E"/>
<path fill-rule="evenodd" clip-rule="evenodd" d="M29.6636 43.559C30.1597 44.3133 30.6498 45.0707 31.1547 45.8177C31.3289 46.0746 31.3939 46.3063 31.3334 46.6341C31.106 47.883 30.9274 49.1424 30.7296 50.3972C30.4446 50.4445 30.3605 50.1876 30.2232 50.0385C28.2464 47.8786 26.2785 45.7114 24.3076 43.5457C26.0954 43.5501 27.8788 43.5545 29.6636 43.559Z" fill="#51BE5F"/>
<path fill-rule="evenodd" clip-rule="evenodd" d="M25.202 57.9913C25.202 56.4781 25.2006 54.9664 25.2035 53.4532C25.205 52.78 25.5121 52.4123 26.0671 52.4005C26.6488 52.3887 26.9736 52.7637 26.9736 53.4664C26.9751 56.4737 26.9647 59.4794 26.9854 62.4867C26.9884 62.9414 26.8378 63.0432 26.4155 63.0388C25.205 63.0255 25.2035 63.0418 25.2035 61.8105C25.202 60.5365 25.202 59.2639 25.202 57.9913Z" fill="#5ECE6D"/>
<path fill-rule="evenodd" clip-rule="evenodd" d="M46.5675 62.1929C45.9637 62.2239 45.4706 62.5827 44.917 62.7613C44.2541 62.9754 43.6503 63.3518 42.9535 63.4714C42.6804 63.1791 42.3866 62.9104 42.0411 62.7037C41.6455 62.3538 41.2528 61.9996 40.8542 61.6526C40.4511 61.3027 40.0319 60.9602 39.9344 60.3948C39.7514 59.3348 40.4954 58.4756 41.5805 58.483C41.7267 58.4844 41.8743 58.4903 42.0204 58.4933C42.6065 58.8402 43.1041 59.3038 43.6444 59.7098C44.3279 60.2235 44.9273 60.848 45.692 61.2525L45.6861 61.2466C45.6714 61.3382 45.7245 61.3632 45.8013 61.3677L45.7924 61.3588C45.8278 61.3972 45.8633 61.4356 45.9002 61.4754C46.1187 61.719 46.4686 61.8401 46.5675 62.1929Z" fill="#358FD8"/>
<path fill-rule="evenodd" clip-rule="evenodd" d="M45.6921 61.254C44.9274 60.8495 44.328 60.225 43.6444 59.7113C43.1041 59.3038 42.6051 58.8417 42.0205 58.4948C42.0279 57.6459 42.0338 56.797 42.0412 55.9482C42.2243 55.9614 42.3807 55.802 42.5712 55.8684C43.5485 57.4909 44.5273 59.1134 45.4957 60.7402C45.5873 60.8938 45.8073 61.0163 45.6921 61.254Z" fill="#F9FBFC"/>
<path fill-rule="evenodd" clip-rule="evenodd" d="M42.5712 55.8684C42.3808 55.802 42.2243 55.9614 42.0412 55.9481C41.3695 55.8271 41.1525 55.5835 41.1466 54.9265C41.1421 54.3936 41.1362 53.8591 41.148 53.3262C41.1599 52.7563 41.5024 52.405 42.0235 52.4006C42.5461 52.3961 42.9004 52.746 42.9137 53.31C42.927 53.8798 42.9004 54.4511 42.9226 55.021C42.9359 55.3694 42.7129 55.5968 42.5712 55.8684Z" fill="#5ECE6D"/>
<path fill-rule="evenodd" clip-rule="evenodd" d="M29.5871 68.3432C28.6039 68.3299 28.7501 68.4613 28.7486 67.3718C28.7471 66.4255 28.6349 66.5775 29.7569 66.5746C30.6619 66.5716 30.5069 66.4609 30.5142 67.6243C30.5187 68.4717 30.5851 68.3299 29.5871 68.3432Z" fill="#51BE5F"/>
<path fill-rule="evenodd" clip-rule="evenodd" d="M34.0601 67.4898C34.0453 68.4922 34.19 68.3343 33.0459 68.3402C32.1497 68.3446 32.2944 68.4391 32.2929 67.3422C32.2915 66.4254 32.1778 66.5819 33.3323 66.5745C34.1885 66.5686 34.0468 66.5066 34.0601 67.4898Z" fill="#51BE5F"/>
<path fill-rule="evenodd" clip-rule="evenodd" d="M42.0412 62.7051C42.3866 62.9118 42.6804 63.1804 42.9535 63.4728C42.6893 63.7104 42.3409 63.771 42.0308 63.9112C42.0279 63.6115 42.0249 63.3133 42.022 63.0136C42.0294 62.9103 42.0353 62.8084 42.0412 62.7051Z" fill="#F9FBFC"/>
<path fill-rule="evenodd" clip-rule="evenodd" d="M45.8022 61.3691C45.7254 61.3661 45.6723 61.3396 45.687 61.2481C45.8273 61.1905 45.8066 61.2879 45.8022 61.3691Z" fill="#F9FBFC"/>
<path fill-rule="evenodd" clip-rule="evenodd" d="M45.9002 61.4769C45.8648 61.4385 45.8294 61.4001 45.7925 61.3602C45.8884 61.344 45.8973 61.4075 45.9002 61.4769Z" fill="#F9FBFC"/>
<path fill-rule="evenodd" clip-rule="evenodd" d="M35.8168 32.9148C34.8321 32.9059 34.0379 32.0851 34.06 31.1019C34.0822 30.1408 34.8809 29.3657 35.8434 29.3746C36.8296 29.382 37.6209 30.1984 37.6017 31.1845C37.5825 32.1382 36.772 32.9251 35.8168 32.9148Z" fill="#7C452C"/>
<path fill-rule="evenodd" clip-rule="evenodd" d="M37.9367 23.2804C37.6532 23.8016 37.5528 24.3567 37.6075 24.9442C34.2872 24.9442 30.9656 24.9324 27.6453 24.9561C27.1257 24.959 26.9397 24.8409 26.9589 24.2932C26.9987 23.1742 26.9692 23.1727 28.1163 23.1727C31.1781 23.1727 34.2415 23.1712 37.3033 23.1771C37.5174 23.1771 37.7521 23.0959 37.9367 23.2804Z" fill="#283F61"/>
</svg>
