<svg width="90" height="90" viewBox="0 0 90 90" fill="none" xmlns="http://www.w3.org/2000/svg">
<circle cx="45" cy="45" r="45" fill="#DBFDDF"/>
<path fill-rule="evenodd" clip-rule="evenodd" d="M67.6089 35.8C67.6089 38.0164 67.6336 40.2329 67.6043 42.4477C67.5011 50.1374 64.924 56.8668 59.7143 62.5481C55.881 66.7267 51.2031 69.5303 45.7314 71.0192C45.4617 71.0932 45.212 71.1163 44.9407 71.0346C33.35 67.5343 26.226 59.8739 23.5672 48.0689C23.1141 46.0544 22.9985 43.9968 23 41.9345C23.0031 37.4261 23.0015 32.9162 23.0015 28.4078C23.0015 27.5909 23.0016 27.5971 23.8046 27.4877C29.3672 26.7355 34.5753 24.983 39.3565 22.0052C41.2385 20.8338 43.0557 19.5699 44.8097 18.2182C45.1781 17.9346 45.4139 17.9222 45.7946 18.212C49.0468 20.6935 52.4331 22.9608 56.2078 24.5931C59.7097 26.1082 63.3611 27.0607 67.1466 27.4985C67.5889 27.5493 67.6136 27.7682 67.612 28.1119C67.6059 30.6751 67.6089 33.2383 67.6089 35.8ZM61.9538 38.2384C61.9538 36.5044 61.9354 34.7704 61.9662 33.0364C61.9754 32.5432 61.8382 32.3398 61.3389 32.2288C57.8724 31.4535 54.5616 30.2451 51.4096 28.5974C49.4984 27.5986 47.6458 26.5058 45.8902 25.2558C45.4602 24.9491 45.1442 24.9568 44.7172 25.2589C43.5582 26.082 42.3405 26.8172 41.1121 27.5339C37.3651 29.7195 33.3962 31.3302 29.156 32.255C28.7661 32.3398 28.6459 32.5232 28.6489 32.9285C28.6674 36.0312 28.6551 39.1324 28.6628 42.235C28.6644 42.9256 28.7014 43.613 28.7476 44.305C28.8956 46.5261 29.3873 48.6593 30.1456 50.7416C31.1505 53.499 32.6117 55.996 34.5584 58.1846C37.0183 60.9513 39.9361 63.1184 43.3871 64.5133C44.3612 64.9064 45.3245 65.489 46.4466 64.8539C46.9783 64.5534 47.5841 64.3885 48.139 64.1264C51.9383 62.337 55.0641 59.7398 57.5102 56.3196C60.4264 52.2428 61.8675 47.6882 61.9538 42.6928C61.9754 41.2054 61.9538 39.7212 61.9538 38.2384Z" fill="#6ACE77"/>
<path fill-rule="evenodd" clip-rule="evenodd" d="M61.9541 38.2384C61.9541 39.7227 61.9757 41.2054 61.9495 42.6897C61.8632 47.6836 60.422 52.2382 57.5058 56.3165C55.0597 59.7367 51.9339 62.3339 48.1346 64.1234C47.5782 64.3854 46.9724 64.5503 46.4422 64.8509C45.3217 65.4859 44.3568 64.9048 43.3827 64.5102C39.9317 63.1153 37.014 60.9498 34.554 58.1816C32.6089 55.9929 31.1461 53.4959 30.1412 50.7385C29.3829 48.6562 28.8927 46.523 28.7432 44.3019C28.697 43.6114 28.66 42.9225 28.6585 42.232C28.6507 39.1293 28.6631 36.0281 28.6446 32.9254C28.6415 32.5216 28.7617 32.3367 29.1517 32.2519C33.3934 31.3286 37.3623 29.718 41.1077 27.5308C42.3377 26.8141 43.5538 26.0774 44.7129 25.2558C45.1398 24.9522 45.4558 24.946 45.8858 25.2527C47.6414 26.5028 49.4956 27.5956 51.4053 28.5943C54.5558 30.242 57.868 31.4504 61.3345 32.2257C61.8339 32.3382 61.9711 32.5401 61.9618 33.0334C61.9356 34.7689 61.9541 36.5044 61.9541 38.2384ZM54.4787 40.6767C54.417 40.6043 54.3492 40.5134 54.2675 40.4348C53.5662 39.7489 52.8387 39.0861 52.1682 38.3694C51.7999 37.9748 51.5871 38.0149 51.2234 38.3833C48.1485 41.4875 45.0489 44.5671 41.9693 47.6667C41.6872 47.9518 41.5285 47.9688 41.2495 47.6697C40.6052 46.9808 39.9086 46.3427 39.2628 45.6552C38.9946 45.3685 38.8281 45.3963 38.5707 45.6583C37.854 46.3843 37.125 47.0979 36.379 47.7931C36.1154 48.0381 36.12 48.1861 36.3743 48.4342C38.0312 50.0434 39.6804 51.6602 41.3173 53.2894C41.5608 53.5314 41.6903 53.4944 41.9123 53.2724C46.0045 49.1987 50.1044 45.1327 54.2028 41.0621C54.306 40.9604 54.4448 40.874 54.4787 40.6767Z" fill="#F8BE3E"/>
</svg>
