<svg width="90" height="90" viewBox="0 0 90 90" fill="none" xmlns="http://www.w3.org/2000/svg">
<circle cx="45" cy="45" r="45" fill="#DBFDDF"/>
<path fill-rule="evenodd" clip-rule="evenodd" d="M16 34.5666C16.8306 32.6694 17.6673 30.7736 18.4918 28.8734C19.4223 26.728 20.3467 24.5781 21.2636 22.4266C21.3771 22.1604 21.4905 22 21.8279 22C28.6105 22.0106 35.3916 22.0091 42.1742 22.0106C42.2665 22.0106 42.3603 22.0378 42.4526 22.0529C42.4238 22.1816 42.4147 22.3177 42.3633 22.4357C40.6869 26.3316 38.9954 30.2214 37.3388 34.1264C37.1481 34.5757 36.9151 34.6892 36.4612 34.6877C31.4533 34.674 26.444 34.6816 21.4361 34.6831C19.6235 34.6816 17.811 34.6801 16 34.6786C16 34.6438 16 34.6044 16 34.5666Z" fill="#F8BE3E"/>
<path fill-rule="evenodd" clip-rule="evenodd" d="M63.6389 43.4248C64.4725 43.6487 65.3303 43.7955 66.1292 44.1359C70.5803 46.0286 73.2386 49.3314 73.9799 54.1381C73.992 54.2152 74.0041 54.2848 74.0903 54.3105C74.0903 55.3318 74.0903 56.353 74.0903 57.3743C73.8226 57.8751 73.8286 58.4455 73.6864 58.9795C72.3278 64.0903 67.7526 67.9105 62.4149 68.1904C62.2106 68.1435 62.0079 68.1284 61.8142 68.2297C61.7446 68.2101 61.6765 68.1889 61.6069 68.1692C61.61 65.5579 61.613 62.945 61.616 60.3336C61.6296 60.3079 61.6372 60.2822 61.6357 60.2519C63.7508 58.1534 65.8659 56.0535 67.9856 53.9595C68.2277 53.7205 68.031 53.6025 67.8887 53.4603C67.276 52.8445 66.6466 52.2454 66.0551 51.6114C65.8054 51.3436 65.6723 51.3875 65.4378 51.625C64.2047 52.8732 62.952 54.1033 61.7068 55.3394C61.5873 55.2138 61.6221 55.0564 61.6221 54.9097C61.6236 51.0501 61.6266 47.1905 61.6297 43.3325C62.3059 43.2281 62.9671 43.4324 63.6389 43.4248Z" fill="#51BE5F"/>
<path fill-rule="evenodd" clip-rule="evenodd" d="M21.4361 34.6861C26.444 34.6846 31.4534 34.6771 36.4613 34.6907C36.9151 34.6922 37.1481 34.5772 37.3388 34.1294C38.9955 30.2244 40.6869 26.3346 42.3633 22.4388C42.4147 22.3208 42.4238 22.1846 42.4526 22.056C42.5207 22.0545 42.5887 22.0514 42.6568 22.0499C42.6583 22.1392 42.6598 22.2285 42.6614 22.3177C42.4662 22.5053 42.5539 22.7459 42.5539 22.9622C42.5494 35.2959 42.5509 47.631 42.5509 59.9646C42.041 59.9707 41.5312 59.9828 41.0213 59.9828C34.6896 59.9843 28.3563 59.9783 22.0246 59.9949C21.5571 59.9964 21.4346 59.8875 21.4346 59.4109C21.4467 51.1683 21.4391 42.9272 21.4361 34.6861ZM28.2489 50.9565C28.2489 51.5027 28.2625 51.9551 28.2444 52.4074C28.2308 52.7297 28.3594 52.8371 28.6741 52.8325C29.5047 52.8189 30.3353 52.822 31.1659 52.831C31.4882 52.8341 31.6606 52.7327 31.6561 52.3787C31.6455 51.5102 31.6455 50.6418 31.6561 49.7734C31.6606 49.4178 31.4851 49.3134 31.1644 49.3225C30.768 49.3331 30.3701 49.3059 29.9752 49.3286C29.4184 49.3603 28.7028 49.0804 28.3457 49.4586C28.019 49.8051 28.2898 50.5056 28.2489 50.9565Z" fill="#FFD067"/>
<path fill-rule="evenodd" clip-rule="evenodd" d="M42.5494 59.9631C42.5494 47.6295 42.5479 35.2943 42.5524 22.9607C42.5524 22.7443 42.4646 22.5038 42.6598 22.3162C42.8489 22.767 43.0365 23.2194 43.2287 23.6688C44.7144 27.1289 46.2062 30.5875 47.6798 34.0522C47.8734 34.5091 48.1155 34.6967 48.6436 34.6937C53.6469 34.6725 58.6503 34.6846 63.6551 34.6876C63.6491 37.6001 63.6445 40.5125 63.6385 43.4234C62.9667 43.431 62.3056 43.2268 61.6308 43.3281C61.1951 43.2827 60.7654 43.3372 60.3342 43.3962C55.228 44.0861 51.73 46.8458 49.9129 51.6479C48.8735 54.3939 48.9976 57.1974 49.9069 59.9737C47.4544 59.9706 45.0019 59.9676 42.5494 59.9631Z" fill="#F8BE3E"/>
<path fill-rule="evenodd" clip-rule="evenodd" d="M49.9057 59.9753C48.9964 57.1991 48.8723 54.3956 49.9117 51.6496C51.7303 46.8474 55.2267 44.0893 60.333 43.3979C60.7641 43.3389 61.1938 43.2844 61.6296 43.3298C61.6265 47.1894 61.6235 51.0489 61.622 54.9069C61.622 55.0537 61.5872 55.2111 61.7067 55.3366C61.6719 55.4017 61.6371 55.4667 61.6023 55.5303C61.3829 55.7361 61.1333 55.9191 60.9518 56.1536C60.6295 56.5712 60.3965 56.488 60.0682 56.137C59.3465 55.3669 58.5719 54.6482 57.8426 53.8842C57.5945 53.6255 57.4508 53.6421 57.2162 53.8917C56.6474 54.4939 56.0634 55.0855 55.4552 55.6498C55.1662 55.9191 55.1662 56.078 55.4522 56.3579C56.8532 57.7301 58.2315 59.1236 59.6188 60.5109C60.4918 61.3839 60.4918 61.3839 61.3557 60.5427C61.4359 60.4655 61.5297 60.402 61.6159 60.3324C61.6129 62.9438 61.6099 65.5567 61.6069 68.168C56.9061 68.1211 53.393 65.9939 50.9072 62.0647C50.4927 61.4066 50.2173 60.6819 49.9057 59.9753Z" fill="#67D876"/>
<path fill-rule="evenodd" clip-rule="evenodd" d="M61.8135 68.2285C62.0071 68.1256 62.2099 68.1408 62.4141 68.1892C62.2205 68.2996 62.0177 68.2709 61.8135 68.2285Z" fill="#83E370"/>
<path fill-rule="evenodd" clip-rule="evenodd" d="M63.6551 34.6892C58.6518 34.6862 53.6484 34.6741 48.6436 34.6953C48.1155 34.6968 47.875 34.5107 47.6798 34.0538C46.2077 30.5876 44.7144 27.1305 43.2287 23.6704C43.035 23.221 42.8489 22.7686 42.6598 22.3178C42.6583 22.2285 42.6568 22.1392 42.6553 22.05C42.7294 22.0394 42.8051 22.0212 42.8792 22.0212C49.6073 22.0243 56.337 22.0318 63.0651 22.0228C63.4917 22.0228 63.6899 22.165 63.8533 22.5523C65.5009 26.4239 67.1622 30.2895 68.8416 34.1461C69.0488 34.6226 68.9505 34.6968 68.4724 34.6907C66.8687 34.6696 65.2619 34.6862 63.6551 34.6892Z" fill="#FFD984"/>
<path fill-rule="evenodd" clip-rule="evenodd" d="M61.6035 55.5315C61.6383 55.4665 61.6731 55.4014 61.7079 55.3379C62.9531 54.1018 64.2043 52.8717 65.4389 51.6235C65.6734 51.386 65.8065 51.3422 66.0562 51.6099C66.6477 52.2439 67.2771 52.843 67.8899 53.4588C68.0321 53.601 68.2273 53.7205 67.9867 53.9581C65.8671 56.052 63.7534 58.152 61.6368 60.2504C61.6247 58.6785 61.6141 57.105 61.6035 55.5315Z" fill="#D4F1F4"/>
<path fill-rule="evenodd" clip-rule="evenodd" d="M61.6035 55.5317C61.6141 57.1052 61.6247 58.6786 61.6368 60.2521C61.6383 60.2808 61.6323 60.3081 61.6171 60.3338C61.5294 60.4034 61.4371 60.4669 61.3569 60.5441C60.493 61.3853 60.493 61.3853 59.62 60.5123C58.2342 59.1265 56.8543 57.7315 55.4533 56.3593C55.1674 56.0794 55.1674 55.9205 55.4564 55.6512C56.0631 55.0869 56.6471 54.4968 57.2174 53.8931C57.4535 53.6435 57.5972 53.6268 57.8438 53.8856C58.5731 54.6481 59.3477 55.3683 60.0694 56.1384C60.3977 56.4879 60.6292 56.5726 60.953 56.155C61.1345 55.9205 61.3841 55.7374 61.6035 55.5317Z" fill="#F0FCFC"/>
<path fill-rule="evenodd" clip-rule="evenodd" d="M28.2489 50.9564C28.2898 50.5055 28.0189 49.8065 28.3457 49.4585C28.7028 49.0803 29.4169 49.3617 29.9752 49.3284C30.3701 49.3057 30.768 49.333 31.1644 49.3224C31.4851 49.3133 31.6606 49.4177 31.6561 49.7732C31.6455 50.6417 31.6455 51.5101 31.6561 52.3785C31.6606 52.7326 31.4881 52.8354 31.1659 52.8309C30.3353 52.8218 29.5047 52.8188 28.6741 52.8324C28.3594 52.8385 28.2308 52.7296 28.2444 52.4073C28.2625 51.9549 28.2489 51.501 28.2489 50.9564Z" fill="#FFD067"/>
</svg>
