<svg width="90" height="90" viewBox="0 0 90 90" fill="none" xmlns="http://www.w3.org/2000/svg">
<circle cx="45" cy="45" r="45" fill="#DBFDDF"/>
<path fill-rule="evenodd" clip-rule="evenodd" d="M71.7415 41.3542C71.7415 48.1871 71.7415 55.0201 71.7415 61.8531C71.5793 61.9561 71.5832 62.1415 71.5343 62.296C70.9253 64.235 69.1819 65.5444 67.1553 65.5586C65.5961 65.5689 64.0369 65.5573 62.4777 65.556C62.4751 61.4436 62.4725 57.33 62.47 53.2176C62.9322 53.2124 63.3944 53.2034 63.8567 53.2008C64.9021 53.1957 65.5652 52.588 65.5588 51.639C65.5523 50.7159 64.8906 50.1107 63.876 50.1094C60.2941 50.1081 56.7121 50.1107 53.1302 50.1081C50.5422 50.1069 47.9556 50.0991 45.3676 50.094C45.3702 45.9146 45.3715 41.7353 45.374 37.5559L45.3638 37.525C49.2341 37.5302 53.1031 37.5379 56.9735 37.5392C58.8056 37.5405 60.6378 37.5289 62.4687 37.5225C62.9979 37.5276 63.5271 37.5212 64.0549 37.5418C65.5832 37.6036 67.127 37.3577 68.6373 37.7671C69.8128 38.2551 70.7463 39.0135 71.2922 40.1864C71.4686 40.5649 71.5935 40.9641 71.7415 41.3542Z" fill="#51BE5F"/>
<path fill-rule="evenodd" clip-rule="evenodd" d="M45.3752 37.5573C45.3726 41.7366 45.3713 45.916 45.3688 50.0953L45.3739 50.1262C44.5859 50.1211 43.798 50.1108 43.01 50.1108C37.6796 50.1095 32.3492 50.1095 27.0175 50.1108C25.878 50.1108 25.1776 50.7082 25.184 51.6661C25.1905 52.6215 25.887 53.197 27.0381 53.2021C27.4488 53.2034 27.8608 53.2125 28.2715 53.2189C28.2703 57.3313 28.2677 61.4437 28.2664 65.5548C26.7445 65.5574 25.2227 65.5793 23.7008 65.5574C21.5261 65.5252 19.8691 64.2853 19.2073 62.2407C19.1622 62.1016 19.1674 61.9304 19 61.8544C19 54.9867 19 48.119 19 41.2525C19.1545 41.192 19.1584 41.0388 19.1944 40.9139C19.6425 39.3894 20.6442 38.3852 22.1017 37.8045C22.8111 37.5882 23.5386 37.5367 24.2763 37.5405C25.6076 37.547 26.939 37.5328 28.2703 37.5264C30.2389 37.5315 32.2075 37.5393 34.1775 37.5431C37.9088 37.5483 41.6426 37.5521 45.3752 37.5573ZM28.3089 43.7233C27.7939 43.7233 27.2789 43.7117 26.7651 43.7259C25.8471 43.7503 25.1763 44.416 25.184 45.2799C25.1905 46.1233 25.8497 46.7902 26.7381 46.8069C27.7668 46.8263 28.7982 46.8288 29.8269 46.8057C30.7089 46.7863 31.3642 46.0988 31.3578 45.2555C31.3513 44.4121 30.6921 43.7555 29.8037 43.7259C29.3042 43.7104 28.8072 43.7246 28.3089 43.7233Z" fill="#62CC6F"/>
<path fill-rule="evenodd" clip-rule="evenodd" d="M45.3751 37.5573C41.6425 37.5521 37.9099 37.5483 34.1774 37.5418C32.2087 37.538 30.2401 37.5302 28.2702 37.5251C28.2689 34.444 28.2689 31.3629 28.2676 28.2806C28.2689 25.7596 28.2702 23.2399 28.2689 20.7189C28.2689 20.097 28.4543 19.5742 29.0131 19.2369C29.1058 19.1815 29.1701 19.1056 29.1959 19C34.5868 19 39.9777 19 45.3687 19C45.3674 25.175 45.3648 31.3513 45.3635 37.5264L45.3751 37.5573Z" fill="#E4E4E4"/>
<path fill-rule="evenodd" clip-rule="evenodd" d="M28.265 65.5536C28.2663 61.4412 28.2689 57.3288 28.2702 53.2177C29.7598 53.2126 31.2495 53.2036 32.7392 53.201C36.952 53.1945 41.1648 53.1907 45.3777 53.1855L45.3648 53.2139C45.3674 54.231 45.3699 55.2482 45.3725 56.264C45.133 56.2731 44.8936 56.2885 44.6541 56.2898C41.7919 56.2924 38.9284 56.2859 36.0662 56.2949C35.1224 56.2988 34.4696 56.9323 34.4555 57.8104C34.4413 58.7091 35.1031 59.3683 36.0662 59.3773C37.5057 59.3902 38.9464 59.3773 40.3859 59.3825C42.0481 59.3876 43.7103 59.3992 45.3725 59.4082C45.3725 60.4202 45.3725 61.4335 45.3725 62.4455C45.133 62.4545 44.8936 62.47 44.6541 62.4713C41.7919 62.4738 38.9284 62.4674 36.0662 62.4764C35.1224 62.479 34.4696 63.1137 34.4555 63.9918C34.4413 64.8905 35.1031 65.5498 36.0662 65.5588C37.5057 65.5716 38.9464 65.5588 40.3859 65.5639C42.0481 65.5691 43.7103 65.5807 45.3725 65.5897C45.3725 67.6407 45.3712 69.6931 45.3712 71.7441C39.9803 71.7441 34.5894 71.7441 29.1985 71.7441C29.165 71.6849 29.147 71.6012 29.0955 71.5716C28.4156 71.1763 28.256 70.5531 28.265 69.8205C28.2817 68.3978 28.2663 66.9751 28.265 65.5536Z" fill="#E4E4E4"/>
<path fill-rule="evenodd" clip-rule="evenodd" d="M45.3715 62.444C45.3715 61.432 45.3715 60.4188 45.3715 59.4068L45.3702 59.3604C48.526 59.3655 51.683 59.3823 54.8387 59.3694C55.6692 59.3656 56.2756 58.687 56.2859 57.8617C56.2975 57.0107 55.6885 56.3064 54.8387 56.3012C51.683 56.287 48.526 56.3038 45.3702 56.3102L45.3715 56.2639C45.3689 55.2467 45.3663 54.2296 45.3638 53.2137C49.3023 53.2085 53.2409 53.2021 57.1795 53.2008C58.9434 53.2008 60.706 53.2111 62.47 53.2176C62.4726 57.33 62.4751 61.4436 62.4764 65.556C62.4738 67.0779 62.4687 68.5998 62.47 70.1216C62.47 70.6483 62.3013 71.0924 61.8893 71.4324C61.7863 71.5173 61.655 71.5843 61.646 71.7439C56.2203 71.7439 50.7959 71.7439 45.3702 71.7439C45.3702 69.6929 45.3715 67.6406 45.3715 65.5895L45.3702 65.5432C48.526 65.5483 51.683 65.5651 54.8387 65.5522C55.6692 65.5483 56.2756 64.8698 56.2859 64.0445C56.2975 63.1934 55.6885 62.4891 54.8387 62.4853C51.683 62.4711 48.526 62.4878 45.3702 62.4943L45.3715 62.444Z" fill="#D8D8D8"/>
<path fill-rule="evenodd" clip-rule="evenodd" d="M45.3647 37.5264C45.366 31.3513 45.3686 25.175 45.3699 19C46.9497 19 48.5295 19 50.108 19C50.108 22.5317 50.1054 26.0634 50.1093 29.5939C50.1106 30.7681 50.7054 31.3578 51.8874 31.3604C53.4646 31.3642 55.0419 31.3642 56.6191 31.3604C58.5556 31.3552 60.492 31.3449 62.4298 31.3359C62.4439 31.5213 62.4684 31.7067 62.4684 31.8921C62.4709 33.7693 62.4697 35.6466 62.4697 37.5238C60.6375 37.5289 58.8053 37.5405 56.9745 37.5405C53.1041 37.5393 49.2338 37.5315 45.3647 37.5264Z" fill="#D8D8D8"/>
<path fill-rule="evenodd" clip-rule="evenodd" d="M62.4295 31.3371C60.493 31.3461 58.5566 31.3564 56.6188 31.3616C55.0416 31.3654 53.4644 31.3654 51.8871 31.3616C50.7052 31.359 50.1103 30.7693 50.109 29.5951C50.1065 26.0634 50.1077 22.5316 50.1077 19.0012C50.1425 19.0012 50.176 19.0012 50.2108 19.0012C50.194 19.148 50.3176 19.2072 50.3987 19.2871C53.3433 22.2355 56.2892 25.1814 59.2364 28.126C59.2969 28.1865 59.369 28.2342 59.4347 28.2882C60.4325 29.3041 61.4304 30.32 62.4295 31.3371Z" fill="#F8BE3E"/>
<path fill-rule="evenodd" clip-rule="evenodd" d="M62.47 53.2176C60.706 53.2125 58.9434 53.2009 57.1795 53.2009C53.2409 53.2021 49.3023 53.2086 45.3638 53.2137L45.3766 53.1854C45.3753 52.1657 45.374 51.146 45.3728 50.1262L45.3676 50.0953C47.9556 50.1005 50.5435 50.1069 53.1302 50.1095C56.7121 50.1121 60.2941 50.1095 63.876 50.1108C64.8906 50.1108 65.5523 50.7172 65.5588 51.6404C65.5652 52.5893 64.9008 53.1957 63.8567 53.2022C63.3944 53.2034 62.9322 53.2112 62.47 53.2176Z" fill="#CAFCD1"/>
<path fill-rule="evenodd" clip-rule="evenodd" d="M62.4299 31.3371C61.432 30.3213 60.4342 29.3041 59.4351 28.2882C61.114 28.2767 62.802 28.1569 64.4719 28.332C66.9221 28.5882 68.5779 30.4281 68.6397 32.8847C68.6809 34.5122 68.6409 36.1422 68.6384 37.771C67.1281 37.3615 65.5843 37.6087 64.056 37.5456C63.5281 37.5238 62.9989 37.5315 62.4698 37.5263C62.4698 35.6491 62.471 33.7719 62.4685 31.8946C62.4672 31.7079 62.4427 31.5225 62.4299 31.3371Z" fill="#F8BE3E"/>
<path fill-rule="evenodd" clip-rule="evenodd" d="M45.3728 50.1262C45.3741 51.146 45.3754 52.1657 45.3767 53.1854C41.1639 53.1906 36.9511 53.1944 32.7383 53.2009C31.2486 53.2034 29.7589 53.2112 28.2692 53.2176C27.8585 53.2125 27.4465 53.2022 27.0357 53.2009C25.886 53.1957 25.1881 52.6202 25.1817 51.6648C25.1752 50.7069 25.8757 50.1108 27.0152 50.1095C32.3456 50.1082 37.676 50.1082 43.0077 50.1095C43.7969 50.1108 44.5849 50.1211 45.3728 50.1262Z" fill="#CAFCD1"/>
<path fill-rule="evenodd" clip-rule="evenodd" d="M22.1002 37.8031C22.0964 36.1769 22.0629 34.5508 22.0977 32.9246C22.1543 30.2852 24.0895 28.3603 26.7277 28.2753C27.2401 28.2586 27.7538 28.2779 28.2676 28.2805C28.2688 31.3615 28.2688 34.4439 28.2701 37.525C26.9388 37.5314 25.6075 37.5456 24.2762 37.5391C23.5371 37.5353 22.8097 37.5868 22.1002 37.8031Z" fill="#F8BE3E"/>
<path fill-rule="evenodd" clip-rule="evenodd" d="M28.3091 43.7233C28.8074 43.7233 29.3044 43.7104 29.8014 43.7259C30.6911 43.7542 31.349 44.4108 31.3555 45.2554C31.3619 46.0988 30.7078 46.7863 29.8246 46.8056C28.7958 46.8288 27.7658 46.8262 26.7358 46.8069C25.8461 46.7902 25.1881 46.1232 25.1817 45.2799C25.174 44.416 25.8448 43.7503 26.7628 43.7259C27.2791 43.713 27.7941 43.7233 28.3091 43.7233Z" fill="#DEE3FA"/>
<path fill-rule="evenodd" clip-rule="evenodd" d="M45.3713 59.4068C43.7091 59.3977 42.0469 59.3861 40.3847 59.381C38.9452 59.3771 37.5045 59.3887 36.0651 59.3759C35.102 59.3668 34.4402 58.7076 34.4543 57.8089C34.4685 56.9308 35.1213 56.2973 36.0651 56.2935C38.9272 56.2832 41.7907 56.2896 44.6529 56.2883C44.8924 56.2883 45.1319 56.2716 45.3713 56.2626L45.3701 56.3089C45.3701 57.3261 45.3701 58.3432 45.3701 59.3604L45.3713 59.4068Z" fill="#ADACB2"/>
<path fill-rule="evenodd" clip-rule="evenodd" d="M45.3713 65.5883C43.7091 65.5793 42.0469 65.5677 40.3847 65.5625C38.9452 65.5586 37.5045 65.5703 36.0651 65.5574C35.102 65.5484 34.4402 64.8891 34.4543 63.9904C34.4685 63.1123 35.1213 62.4789 36.0651 62.475C38.9272 62.4647 41.7907 62.4711 44.6529 62.4698C44.8924 62.4698 45.1319 62.4531 45.3713 62.4441L45.3701 62.4905C45.3701 63.5076 45.3701 64.5248 45.3701 65.5419L45.3713 65.5883Z" fill="#ADACB2"/>
<path fill-rule="evenodd" clip-rule="evenodd" d="M45.3701 59.3604C45.3701 58.3432 45.3701 57.326 45.3701 56.3089C48.5259 56.3037 51.6829 56.2857 54.8386 56.2999C55.6884 56.3037 56.2974 57.008 56.2858 57.8604C56.2742 58.687 55.6691 59.3655 54.8386 59.3681C51.6829 59.3835 48.5272 59.3668 45.3701 59.3604Z" fill="#8B8892"/>
<path fill-rule="evenodd" clip-rule="evenodd" d="M45.3701 65.5419C45.3701 64.5247 45.3701 63.5076 45.3701 62.4904C48.5259 62.4853 51.6829 62.4672 54.8386 62.4814C55.6884 62.4853 56.2974 63.1896 56.2858 64.0406C56.2742 64.8672 55.6691 65.5457 54.8386 65.5483C51.6829 65.5638 48.5272 65.547 45.3701 65.5419Z" fill="#8B8892"/>
</svg>
