<svg width="90" height="90" viewBox="0 0 90 90" fill="none" xmlns="http://www.w3.org/2000/svg">
<circle cx="45" cy="45" r="45" fill="#DBFDDF"/>
<path fill-rule="evenodd" clip-rule="evenodd" d="M52.1658 20C52.85 20.2371 53.5769 20.2342 54.2786 20.3829C58.0922 21.1886 61.3936 22.9341 64.1372 25.7136C63.1177 26.6097 62.2129 27.6233 61.2343 28.5612C60.6288 29.1414 60.0845 29.7838 59.4295 30.3125C59.4042 30.3125 59.378 30.3144 59.3527 30.3173C58.653 29.6253 57.7841 29.4261 56.8502 29.5486C54.851 29.811 52.8558 30.1045 50.8616 30.4019C50.0287 30.5263 49.5223 31.2503 49.6389 32.0919C49.741 32.8306 50.4777 33.3806 51.2629 33.2941C51.5671 33.2611 51.8684 33.1999 52.1716 33.1581C53.0249 33.0395 53.8792 32.9239 54.7334 32.8072C54.75 32.8403 54.7655 32.8733 54.782 32.9054C52.6391 35.0493 50.4961 37.1933 48.3532 39.3372C48.219 39.3488 48.1034 39.2973 47.9858 39.24C46.2967 38.4188 44.6212 38.4518 42.9613 39.3265C42.6522 39.4888 42.35 39.6637 42.0438 39.8319C41.9622 39.7794 41.8776 39.7327 41.7999 39.6754C39.101 37.6695 36.3992 35.6674 33.7081 33.6508C33.2339 33.2951 32.6935 33.0172 32.3213 32.5332C35.1008 25.7321 40.0816 21.622 47.3142 20.2546C47.7652 20.1691 48.2443 20.2303 48.6671 20C49.8333 20 50.9995 20 52.1658 20Z" fill="#67D876"/>
<path fill-rule="evenodd" clip-rule="evenodd" d="M20.001 28.6487C20.2595 28.0131 20.3781 27.3279 20.7386 26.7253C22.2217 24.2461 25.183 23.2645 27.806 24.3977C30.3805 25.5105 31.6867 28.4174 30.8567 31.1872C30.8198 31.3106 30.7828 31.434 30.7459 31.5584C30.327 32.4525 29.7498 33.2281 29.0043 33.8763C28.0062 34.5838 26.907 35.0212 25.6747 35.0474C22.9807 35.1048 20.6035 33.161 20.103 30.5117C20.0826 30.4038 20.1108 30.2804 20.001 30.2027C20.001 29.6847 20.001 29.1667 20.001 28.6487Z" fill="#F8BE3E"/>
<path fill-rule="evenodd" clip-rule="evenodd" d="M20.001 64.4084C20.1516 64.3257 20.138 64.1586 20.1759 64.0284C20.3363 63.4773 20.5647 62.9554 20.9446 62.5298C21.9564 61.3985 23.0235 60.3207 24.1606 59.3148C25.2539 60.3081 26.2695 61.38 27.3055 62.4306C26.7729 63.1041 26.1208 63.6629 25.5221 64.2723C24.1421 65.6786 22.7514 67.0742 21.3645 68.4737C20.6239 67.8303 20.3178 66.941 20 66.0595C20.001 65.5095 20.001 64.9594 20.001 64.4084Z" fill="#F8BE3E"/>
<path fill-rule="evenodd" clip-rule="evenodd" d="M59.4296 30.3115C60.0847 29.7828 60.6299 29.1404 61.2344 28.5602C62.213 27.6224 63.1178 26.6097 64.1373 25.7126C66.3104 27.8294 67.8742 30.3416 68.7692 33.2271C70.8199 39.8377 69.781 45.9566 65.5086 51.4136C62.5007 55.2554 58.5015 57.5597 53.6791 58.3809C49.0044 59.1768 44.6262 58.3226 40.5298 55.9571C40.4472 55.9094 40.3539 55.8822 40.2654 55.8453C39.0205 54.9842 37.8095 54.0814 36.722 53.025C36.7181 52.9977 36.7172 52.9715 36.7181 52.9443C36.9222 52.9355 37.0223 52.7723 37.1457 52.6498C37.9145 51.885 38.6745 51.1104 39.4491 50.3523C40.1877 49.6293 40.8767 48.8537 41.6678 48.1831C42.8904 49.3299 44.3142 49.88 46.013 49.7498C47.4242 49.6419 48.6303 49.0831 49.5574 48.0733C51.3359 46.1354 51.5838 43.8496 50.401 41.4442C52.5547 39.2945 54.7083 37.1437 56.862 34.994C56.7871 36.1456 56.6384 37.2438 56.4645 38.3372C56.3245 39.2186 56.8172 39.968 57.6773 40.1322C58.4772 40.2848 59.2255 39.7804 59.3577 38.93C59.6376 37.134 59.8534 35.3283 60.1449 33.5352C60.3383 32.3476 60.2703 31.2523 59.4296 30.3115Z" fill="#51BE5F"/>
<path fill-rule="evenodd" clip-rule="evenodd" d="M36.721 53.025C37.8095 54.0824 39.0204 54.9853 40.2644 55.8454C37.0485 59.0642 33.8336 62.283 30.6167 65.4999C30.5837 65.5329 30.54 65.5543 30.5001 65.5815C29.4641 64.5348 28.4281 63.4871 27.3921 62.4404C27.5126 62.3102 27.6273 62.1741 27.7526 62.0488C30.6138 59.1857 33.4769 56.3235 36.3381 53.4594C36.4751 53.3244 36.5937 53.1708 36.721 53.025Z" fill="black"/>
<path fill-rule="evenodd" clip-rule="evenodd" d="M27.3927 62.4413C28.4288 63.488 29.4648 64.5357 30.5008 65.5824C29.4764 66.6136 28.4968 67.6943 27.418 68.6642C25.6784 70.2289 22.9173 70.1084 21.3662 68.4747C22.7531 67.0752 24.1438 65.6796 25.5238 64.2733C26.1225 63.663 26.7737 63.1042 27.3062 62.4316C27.3344 62.4394 27.3626 62.4433 27.3927 62.4413Z" fill="#FCCA68"/>
<path fill-rule="evenodd" clip-rule="evenodd" d="M42.0436 39.832C42.3488 39.6629 42.652 39.4889 42.9611 39.3266C44.621 38.4519 46.2965 38.4189 47.9856 39.2401C48.1032 39.2974 48.2189 39.349 48.353 39.3373C48.7135 39.6318 49.0741 39.9263 49.4356 40.2207C49.4415 40.2479 49.4473 40.2761 49.4512 40.3033C49.3802 40.3908 49.3151 40.4841 49.2364 40.5638C46.8009 43.0012 44.3644 45.4377 41.927 47.8732C41.8483 47.9519 41.753 48.016 41.6665 48.086C40.6091 47.1725 40.1553 45.9742 40.0173 44.6194C39.9327 43.7875 40.1699 42.9993 40.3079 42.1965C40.7656 41.3189 41.3429 40.5298 42.0436 39.832Z" fill="#F8BE3E"/>
<path fill-rule="evenodd" clip-rule="evenodd" d="M49.4351 40.2197C49.6372 40.2119 49.7431 40.0574 49.8666 39.933C52.9425 36.859 56.0175 33.783 59.0915 30.7071C59.2033 30.5953 59.35 30.503 59.3529 30.3164C59.3782 30.3125 59.4035 30.3115 59.4297 30.3115C60.2704 31.2523 60.3384 32.3476 60.145 33.5342C59.8525 35.3273 59.6367 37.134 59.3578 38.929C59.2256 39.7794 58.4773 40.2838 57.6774 40.1313C56.8173 39.967 56.3236 39.2177 56.4645 38.3362C56.6385 37.2419 56.7872 36.1437 56.862 34.993C54.7084 37.1428 52.5547 39.2935 50.4011 41.4433C50.0988 41.0506 49.8792 40.59 49.4525 40.3013C49.4467 40.2741 49.4409 40.2469 49.4351 40.2197Z" fill="#EEDEC5"/>
<path fill-rule="evenodd" clip-rule="evenodd" d="M31.4233 35.7141C31.6536 35.6558 31.7663 35.8512 31.9082 35.9571C34.7111 38.033 37.5081 40.1147 40.3071 42.1955C40.1691 42.9983 39.9319 43.7864 40.0165 44.6184C40.1545 45.9731 40.6083 47.1714 41.6657 48.085C41.6657 48.118 41.6657 48.1511 41.6667 48.1832C40.8756 48.8537 40.1875 49.6293 39.448 50.3524C38.6734 51.1104 37.9134 51.885 37.1446 52.6498C37.0212 52.7723 36.9211 52.9356 36.717 52.9443C36.2087 52.4671 35.749 51.9443 35.3234 51.3942C34.8403 50.7693 34.3855 50.122 33.918 49.4855C33.3709 48.4057 32.7771 47.3512 32.3533 46.2112C31.0831 42.7951 30.7867 39.2964 31.4233 35.7141Z" fill="#F8BE3E"/>
<path fill-rule="evenodd" clip-rule="evenodd" d="M33.9182 49.4854C34.3856 50.1229 34.8414 50.7692 35.3235 51.3941C35.7482 51.9442 36.2088 52.467 36.7171 52.9442C36.7162 52.9714 36.7171 52.9977 36.721 53.0249C36.5937 53.1707 36.4751 53.3242 36.3391 53.4603C33.4779 56.3244 30.6148 59.1865 27.7536 62.0496C27.6283 62.175 27.5126 62.3101 27.3931 62.4413C27.3639 62.4432 27.3348 62.4393 27.3066 62.4316C26.2706 61.381 25.2559 60.308 24.1616 59.3148C24.2151 59.1321 24.3745 59.0349 24.4979 58.9115C27.636 55.7685 30.7771 52.6264 33.9182 49.4854Z" fill="black"/>
<path fill-rule="evenodd" clip-rule="evenodd" d="M41.6665 48.1831C41.6665 48.15 41.6665 48.117 41.6655 48.0849C41.753 48.014 41.8473 47.9508 41.926 47.8721C44.3634 45.4366 46.7999 43.0001 49.2354 40.5627C49.3141 40.484 49.3792 40.3897 49.4502 40.3022C49.8768 40.5909 50.0965 41.0525 50.3987 41.4442C51.5815 43.8486 51.3346 46.1354 49.5551 48.0733C48.628 49.084 47.4209 49.6419 46.0107 49.7497C44.3129 49.88 42.8891 49.3299 41.6665 48.1831Z" fill="#FEBE3E"/>
</svg>
